<?xml version="1.0" encoding="utf-8"?>
<!-- Generator: Adobe Illustrator 23.0.1, SVG Export Plug-In . SVG Version: 6.00 Build 0)  -->
<svg version="1.1" xmlns="http://www.w3.org/2000/svg" xmlns:xlink="http://www.w3.org/1999/xlink" x="0px" y="0px"
	 viewBox="0 0 1920 1024" style="enable-background:new 0 0 1920 1024;" xml:space="preserve">
<style type="text/css">
	.st0{fill:#212121;stroke:#FFFFFF;stroke-miterlimit:10;}
	.st1{display:none;}
	.st2{display:inline;fill:none;stroke:#FFFFFF;stroke-width:30;stroke-linecap:round;stroke-linejoin:round;stroke-miterlimit:1.5;}
	.st3{display:inline;fill:#FFFFFF;}
	.st4{fill:none;stroke:#FFFFFF;stroke-width:30;stroke-linecap:square;stroke-linejoin:round;stroke-miterlimit:1.5;}
	.st5{fill:#FFFFFF;}
</style>
<g id="Layer_2">
	<rect class="st0" width="1920" height="1024"/>
</g>
<g id="Layer_1" class="st1">
	<path class="st2" d="M951.9,65c458.8,4.7,394.1,718.3,0,718.3C602.6,783.3,491.9,60.3,951.9,65z"/>
	<path class="st2" d="M943.2,853.8c-12.3,21.7-37,65.2-64.7,68.7c-27.7,3.5-73.7-54.2-101.7-47.9c-28,6.3-53.5,59.1-66.2,85.5"/>
	<path class="st2" d="M950.4,783.3l-58.9,61.9l98.9,14.3L950.4,783.3z"/>
	<path class="st3" d="M917.3,165.7c8.3,0,15-6.7,15-15s-6.7-15-15-15V165.7z M740.9,259.2c-3.6,7.5-0.5,16.4,7,20
		c7.5,3.6,16.4,0.5,20-7L740.9,259.2z M917.3,135.7c-60.1,0-130.7,29.2-176.4,123.5l27,13.1c40.6-83.7,100.5-106.6,149.4-106.6
		V135.7z"/>
</g>
<g id="Layer_3">
	<path class="st4" d="M678.8,554.5c-67.1-209,1.8-474.4,281-471.5c36.7,0.4,70.1,5.3,100.2,14"/>
	<path class="st5" d="M925.3,183.7c8.3,0,15-6.7,15-15s-6.7-15-15-15V183.7z M748.9,277.2c-3.6,7.5-0.5,16.4,7,20
		c7.5,3.6,16.4,0.5,20-7L748.9,277.2z M925.3,153.7c-60.1,0-130.7,29.2-176.4,123.5l27,13.1c40.6-83.7,100.5-106.6,149.4-106.6
		V153.7z"/>
</g>
</svg>
