<svg width="648" height="918" viewBox="0 0 648 918" fill="none" xmlns="http://www.w3.org/2000/svg">
<path d="M315.853 11.0231L315.967 0.023706L315.967 0.0237059L315.853 11.0231ZM316.797 805.226C319.792 799.941 317.936 793.228 312.651 790.232C307.366 787.236 300.653 789.092 297.657 794.378L316.797 805.226ZM242.545 868.461L243.906 879.377L243.906 879.377L242.545 868.461ZM140.865 820.544L138.465 809.809L138.465 809.809L140.865 820.544ZM64.7348 901.217C62.0934 906.688 64.3871 913.264 69.8579 915.906C75.3288 918.547 81.9051 916.253 84.5465 910.783L64.7348 901.217ZM314.357 729.338L324.097 724.227C322.449 721.087 319.389 718.934 315.876 718.444C312.364 717.954 308.831 719.187 306.387 721.757L314.357 729.338ZM255.451 791.266L247.48 783.685C244.646 786.665 243.711 790.977 245.056 794.864C246.401 798.751 249.802 801.562 253.872 802.153L255.451 791.266ZM354.383 805.615L352.804 816.501C356.896 817.094 360.974 815.344 363.362 811.969C365.75 808.594 366.044 804.165 364.123 800.504L354.383 805.615ZM281.331 107.662C287.406 107.662 292.331 102.737 292.331 96.6621C292.331 90.5869 287.406 85.6621 281.331 85.6621V107.662ZM108.537 206.915C105.889 212.383 108.173 218.962 113.641 221.611C119.108 224.26 125.687 221.975 128.336 216.507L108.537 206.915ZM315.74 22.0225C427.257 23.17 505.995 67.2279 556.117 131.983C606.492 197.065 628.645 283.979 624.697 371.452C616.76 547.291 504.644 718.333 315.853 718.333V740.333C521.19 740.333 638.453 554.581 646.674 372.444C650.805 280.93 627.731 188.562 573.515 118.517C519.046 48.1474 433.829 1.23644 315.967 0.023706L315.74 22.0225ZM315.853 718.333C232.726 718.333 163.283 675.412 112.529 609.707C61.6904 543.892 30.1429 455.77 23.3726 367.562C16.5988 279.307 34.7006 192.186 81.6041 127.735C128.178 63.7386 204.005 20.873 315.74 22.0225L315.967 0.0237059C197.746 -1.1926 114.935 44.5475 63.8159 114.79C13.0271 184.579 -5.61746 277.332 1.43716 369.246C8.4954 461.206 41.3511 553.549 95.1187 623.156C148.972 692.874 224.339 740.333 315.853 740.333V718.333ZM297.657 794.378C291.449 805.331 282.606 820.892 272.06 834.131C261.042 847.963 250.356 856.402 241.184 857.546L243.906 879.377C262.461 877.063 277.957 862.038 289.268 847.839C301.052 833.046 310.686 816.007 316.797 805.226L297.657 794.378ZM241.184 857.546C237.963 857.947 232.568 856.58 224.25 851.944C216.269 847.496 207.626 841.244 198.198 834.504C189.087 827.991 179.204 820.996 169.695 816.098C160.495 811.361 149.401 807.364 138.465 809.809L143.265 831.279C146.321 830.596 151.467 831.457 159.622 835.657C167.469 839.698 176.059 845.721 185.404 852.401C194.431 858.855 204.228 865.971 213.539 871.161C222.514 876.163 233.263 880.703 243.906 879.377L241.184 857.546ZM138.465 809.809C128.713 811.989 120.137 817.951 112.9 824.875C105.568 831.89 98.8486 840.628 92.8721 849.637C80.9307 867.638 71.0675 888.101 64.7348 901.217L84.5465 910.783C90.9597 897.5 100.217 878.363 111.205 861.799C116.693 853.526 122.391 846.242 128.108 840.772C133.92 835.211 139.025 832.227 143.265 831.279L138.465 809.809ZM306.387 721.757L247.48 783.685L263.421 798.848L322.327 736.92L306.387 721.757ZM253.872 802.153L352.804 816.501L355.962 794.729L257.03 780.38L253.872 802.153ZM364.123 800.504L324.097 724.227L304.617 734.45L344.642 810.726L364.123 800.504ZM281.331 85.6621C222.739 85.6621 153.565 113.973 108.537 206.915L128.336 216.507C169.595 131.344 230.958 107.662 281.331 107.662V85.6621Z" fill="url(#paint0_linear)"/>
<defs>
<linearGradient id="paint0_linear" x1="436" y1="84" x2="143.5" y2="879" gradientUnits="userSpaceOnUse">
<stop stop-color="#FF38B0"/>
<stop offset="1" stop-color="#D0616C"/>
</linearGradient>
</defs>
</svg>
