<svg xmlns="http://www.w3.org/2000/svg" viewBox="0 0 677.29 744.71"><defs><style>.cls-1{fill:#ebebeb;}.cls-2{fill:#c7c7c7;}.cls-3{fill:#a4a4a4;}.cls-4{fill:#c3c3c3;}.cls-5{fill:#c72828;}.cls-6{fill:#eb2f2f;}.cls-7{fill:#4f28c7;}.cls-8{fill:#5e2feb;}</style></defs><title>bloonbot chat isometric</title><g id="chat_bg" data-name="chat bg"><path class="cls-1" d="M1232.56,148.79c5.46-3.15,9.9-.62,9.92,5.64l1.08,381.62c0,6.27-4.4,13.91-9.85,17.06L689.49,867.31c-5.46,3.15-9.9.62-9.92-5.65l-1.08-381.61c0-6.27,4.4-13.91,9.85-17.06Z" transform="translate(-671.44 -143.34)"/><path class="cls-2" d="M1239.59,148.1h0l-7-4.1c-1.8-1-4.29-.89-7,.69L681.3,458.9c-5.46,3.15-9.87,10.79-9.86,17.05l1.09,381.62v.36l0,.4c0,.17,0,.34,0,.51s0,.36.08.54.05.31.08.46a.69.69,0,0,1,0,.13c0,.17.09.33.14.49a2.33,2.33,0,0,1,.07.25q.13.4.3.78h0a1.27,1.27,0,0,0,.07.12,4.71,4.71,0,0,0,.32.59l.15.22.21.3.09.09c.08.1.18.19.27.29a3.57,3.57,0,0,0,.28.27,3.65,3.65,0,0,0,.31.24l.21.16a1.06,1.06,0,0,0,.2.12h0l7.05,4.1a3,3,0,0,1-.41-.29,3.55,3.55,0,0,1-.31-.23l-.28-.28a2.5,2.5,0,0,1-.27-.29c-.11-.12-.2-.25-.3-.38l-.15-.22a4.19,4.19,0,0,1-.32-.59.75.75,0,0,1-.07-.12,6.82,6.82,0,0,1-.31-.79,2.33,2.33,0,0,1-.07-.25c-.06-.2-.11-.41-.16-.62s-.06-.31-.08-.47-.06-.35-.08-.54,0-.33,0-.51,0-.49,0-.76l-1.08-381.61c0-6.27,4.4-13.91,9.85-17.06l544.22-314.2a9.46,9.46,0,0,1,3.87-1.33,6.39,6.39,0,0,1,.87,0,5,5,0,0,1,2.29.66Z" transform="translate(-671.44 -143.34)"/></g><g id="detail_clouds" data-name="detail clouds"><path class="cls-3" d="M1285.82,160.38c-1.12-.66-2.67-.57-4.39.43l-475,274.24a13.57,13.57,0,0,0-6.16,10.66l.06,20.86c0,.08,0,.15,0,.23a2.29,2.29,0,0,0,0,.25c0,.1,0,.21,0,.31s0,.23,0,.34,0,.2.05.29,0,.06,0,.08,0,.06,0,.09a6.36,6.36,0,0,0,.28.84s0,0,0,0h0a3.28,3.28,0,0,0,.43.7.25.25,0,0,0,0,.07l.05.05a1.45,1.45,0,0,0,.17.18l.18.17a1.39,1.39,0,0,0,.19.15l.13.1.12.08h0l7,4.1-.25-.18-.2-.15c-.06-.05-.11-.11-.17-.17l-.17-.18a1.13,1.13,0,0,0-.1-.13,4.36,4.36,0,0,1-.43-.7,0,0,0,0,0,0,0,5.76,5.76,0,0,1-.28-.83c0-.06,0-.11,0-.17a2.5,2.5,0,0,1,0-.29c0-.11,0-.22-.05-.34l0-.32c0-.16,0-.31,0-.47l-.06-20.86a13.57,13.57,0,0,1,6.16-10.66l475-274.25c1.71-1,3.27-1.08,4.39-.43Z" transform="translate(-671.44 -143.34)"/><path class="cls-4" d="M1288.48,164.9c3.41-2,6.18-.39,6.19,3.53l.06,20.86a13.56,13.56,0,0,1-6.15,10.66l-475,274.25c-3.41,2-6.19.38-6.2-3.53l-.06-20.86a13.57,13.57,0,0,1,6.16-10.66Z" transform="translate(-671.44 -143.34)"/><path class="cls-3" d="M789.45,454.35l-7.05-4.09c-1.12-.65-2.68-.56-4.4.43l-18.15,10.48a13.56,13.56,0,0,0-6.15,10.66l.06,20.86v.22a2,2,0,0,0,0,.25c0,.11,0,.22,0,.32s0,.23.05.34,0,.2,0,.29,0,.06,0,.08a.32.32,0,0,0,0,.09,4,4,0,0,0,.28.83v0h0a3.74,3.74,0,0,0,.43.7.25.25,0,0,0,0,.07l0,.06.17.18.18.17.19.15.13.1.13.08,7,4.09a1.44,1.44,0,0,1-.25-.18,1.33,1.33,0,0,1-.19-.14l-.18-.17-.17-.18a1.13,1.13,0,0,0-.1-.13,3.71,3.71,0,0,1-.42-.7l0,0a6.21,6.21,0,0,1-.28-.83c0-.06,0-.12,0-.17s0-.2-.05-.29,0-.23,0-.34,0-.21,0-.32,0-.31,0-.48l-.06-20.85a13.57,13.57,0,0,1,6.16-10.66l18.15-10.48a4.65,4.65,0,0,1,4-.64,2.48,2.48,0,0,1,.44.2Z" transform="translate(-671.44 -143.34)"/><path class="cls-4" d="M785.05,454.79c3.42-2,6.19-.39,6.2,3.52l.06,20.86a13.55,13.55,0,0,1-6.16,10.66L767,500.31c-3.41,2-6.19.39-6.2-3.53l-.06-20.85a13.57,13.57,0,0,1,6.16-10.66Z" transform="translate(-671.44 -143.34)"/><path class="cls-4" d="M1242.48,577.9c3.41-2,6.18-.39,6.19,3.53l.06,20.86a13.56,13.56,0,0,1-6.15,10.66l-475,274.25c-3.41,2-6.19.39-6.2-3.53l-.06-20.87a13.59,13.59,0,0,1,6.16-10.66Z" transform="translate(-671.44 -143.34)"/><path class="cls-3" d="M1239.82,573.37c-1.12-.65-2.67-.56-4.39.43l-475,274.25a13.54,13.54,0,0,0-6.15,10.66l.06,20.86v.23a2.11,2.11,0,0,0,0,.25c0,.11,0,.21,0,.32s0,.22,0,.33,0,.2.05.3,0,0,0,.08,0,0,0,.08a4.36,4.36,0,0,0,.28.84v0h0a3.74,3.74,0,0,0,.43.7.25.25,0,0,0,0,.07l.05.05a1.49,1.49,0,0,0,.17.18l.18.18a1.33,1.33,0,0,0,.19.14l.13.11.13.07,7,4.1a2.27,2.27,0,0,1-.25-.18l-.19-.15a1.45,1.45,0,0,1-.18-.17l-.17-.18-.1-.13a3.42,3.42,0,0,1-.42-.7l0,0a5.76,5.76,0,0,1-.28-.83c0-.06,0-.11,0-.17s0-.19,0-.29,0-.22-.05-.34,0-.21,0-.32,0-.31,0-.47l-.06-20.87a13.59,13.59,0,0,1,6.16-10.66l475-274.24c1.72-1,3.27-1.09,4.39-.43Z" transform="translate(-671.44 -143.34)"/><path class="cls-4" d="M1290.05,547.78c3.41-2,6.18-.39,6.19,3.53l.06,20.86a13.55,13.55,0,0,1-6.15,10.66L1272,593.31c-3.41,2-6.18.39-6.2-3.53l0-20.86a13.54,13.54,0,0,1,6.15-10.66Z" transform="translate(-671.44 -143.34)"/><path class="cls-3" d="M1294.44,547.35l-7-4.1c-1.13-.65-2.68-.56-4.4.43l-18.15,10.48a13.58,13.58,0,0,0-6.15,10.66l.06,20.87v.22a2,2,0,0,0,0,.25c0,.11,0,.22,0,.32s0,.23,0,.34,0,.2.05.29,0,.06,0,.08a.32.32,0,0,0,0,.09,4,4,0,0,0,.28.83v0h0a3.74,3.74,0,0,0,.43.7.16.16,0,0,0,0,.07l0,.06.17.18.18.17.19.15.13.1.13.08h0l7,4.09a1.51,1.51,0,0,1-.26-.18,1.33,1.33,0,0,1-.19-.14l-.18-.17-.17-.18-.09-.13a3.28,3.28,0,0,1-.43-.7l0,0a6.21,6.21,0,0,1-.28-.83c0-.06,0-.11,0-.17s0-.2,0-.29,0-.23-.05-.34,0-.21,0-.32,0-.31,0-.48l0-20.86a13.54,13.54,0,0,1,6.15-10.66l18.15-10.48a5.4,5.4,0,0,1,3-.84,3.22,3.22,0,0,1,1.43.41Z" transform="translate(-671.44 -143.34)"/></g><g id="msg_clouds" data-name="msg clouds"><path class="cls-5" d="M1082,383l-7-4.1c-1.13-.65-2.68-.56-4.4.43L850.26,506.53a13.57,13.57,0,0,0-6.16,10.66l.06,20.87a1.62,1.62,0,0,0,0,.22,2,2,0,0,0,0,.25c0,.11,0,.22,0,.32s0,.23,0,.34,0,.19,0,.29a.19.19,0,0,1,0,.08.32.32,0,0,1,0,.09,5.76,5.76,0,0,0,.28.83,0,0,0,0,1,0,0h0a3.28,3.28,0,0,0,.43.7.25.25,0,0,0,0,.07l0,.06.17.18a1.45,1.45,0,0,0,.18.17l.19.15.13.1.12.07,7,4.1a2.27,2.27,0,0,1-.25-.18l-.2-.15-.17-.17a1,1,0,0,1-.17-.18l-.1-.12a3.74,3.74,0,0,1-.43-.7,0,0,0,0,0,0,0,6.36,6.36,0,0,1-.28-.84s0-.11,0-.17a2.5,2.5,0,0,1-.05-.29c0-.11,0-.22,0-.34l0-.31c0-.16,0-.31,0-.48l-.06-20.86a13.57,13.57,0,0,1,6.16-10.66l220.33-127.21a5.4,5.4,0,0,1,3-.84,3,3,0,0,1,1.43.41Z" transform="translate(-671.44 -143.34)"/><path class="cls-6" d="M1077.64,383.42c3.41-2,6.18-.39,6.19,3.53l.06,20.86a13.56,13.56,0,0,1-6.15,10.66L857.41,545.68c-3.41,2-6.19.39-6.2-3.53l-.06-20.86a13.57,13.57,0,0,1,6.16-10.66Z" transform="translate(-671.44 -143.34)"/><path class="cls-5" d="M1182.75,529.55c-1.12-.65-2.67-.56-4.39.43L849.49,719.86a13.58,13.58,0,0,0-6.16,10.67l.06,20.85c0,.08,0,.16,0,.23a2,2,0,0,0,0,.25c0,.11,0,.21,0,.32s0,.22,0,.34,0,.19,0,.29a.19.19,0,0,1,0,.08.24.24,0,0,1,0,.09,6.21,6.21,0,0,0,.28.83v0h0a3.28,3.28,0,0,0,.43.7.25.25,0,0,0,0,.07l0,0a1.54,1.54,0,0,0,.17.19l.18.17a1.33,1.33,0,0,0,.19.14.69.69,0,0,0,.13.11l.12.07,7,4.1a2.27,2.27,0,0,1-.25-.18l-.2-.15-.17-.17a1.45,1.45,0,0,1-.17-.18l-.1-.12a3.74,3.74,0,0,1-.43-.7.06.06,0,0,0,0,0,5.76,5.76,0,0,1-.28-.83c0-.05,0-.11,0-.17a2.5,2.5,0,0,1-.05-.29c0-.11,0-.22,0-.34l0-.31c0-.16,0-.32,0-.48l-.06-20.86A13.56,13.56,0,0,1,856.54,724l328.87-189.88c1.72-1,3.27-1.08,4.39-.43Z" transform="translate(-671.44 -143.34)"/><path class="cls-6" d="M1185.41,534.08c3.41-2,6.18-.39,6.19,3.54l.06,20.86a13.54,13.54,0,0,1-6.15,10.65L856.64,759c-3.41,2-6.19.39-6.2-3.53l-.06-20.86A13.56,13.56,0,0,1,856.54,724Z" transform="translate(-671.44 -143.34)"/><path class="cls-5" d="M1254.58,391l-7-4.09c-1.12-.66-2.68-.57-4.39.43L849.71,614.5a13.56,13.56,0,0,0-6.15,10.66l.06,20.86v.23a2.29,2.29,0,0,0,0,.25c0,.1,0,.21,0,.31s0,.23.05.34,0,.2,0,.3,0,0,0,.08,0,.05,0,.08a4.14,4.14,0,0,0,.28.84s0,0,0,0h0a3.74,3.74,0,0,0,.43.7l0,.07,0,.06.17.18.18.17.19.15.13.1.13.07,7.05,4.1a2.4,2.4,0,0,1-.26-.18,1.39,1.39,0,0,1-.19-.15l-.18-.17-.17-.18-.09-.12a3.74,3.74,0,0,1-.43-.7v0a5.18,5.18,0,0,1-.29-.84c0-.06,0-.11,0-.17s0-.19,0-.29,0-.22,0-.34,0-.21,0-.32,0-.31,0-.48l-.06-20.85a13.57,13.57,0,0,1,6.16-10.66l393.43-227.15a5.4,5.4,0,0,1,3-.84,3.22,3.22,0,0,1,1.43.41Z" transform="translate(-671.44 -143.34)"/><path class="cls-6" d="M1250.19,391.45c3.41-2,6.18-.39,6.19,3.53l.06,20.86a13.55,13.55,0,0,1-6.15,10.66L856.86,653.65c-3.41,2-6.19.39-6.2-3.54l-.06-20.85a13.57,13.57,0,0,1,6.16-10.66Z" transform="translate(-671.44 -143.34)"/></g><g id="my_msges" data-name="my msges"><path class="cls-7" d="M1339.66,183.57c-1.12-.65-2.68-.56-4.39.43l-148.69,85.85a13.55,13.55,0,0,0-6.15,10.66l.06,20.86v.23a2.29,2.29,0,0,0,0,.25c0,.1,0,.21,0,.31s0,.23,0,.34,0,.2.05.29,0,.06,0,.08a.94.94,0,0,0,0,.09,4.36,4.36,0,0,0,.28.84v0h0a3.74,3.74,0,0,0,.43.7.25.25,0,0,0,0,.07l0,0,.17.18.18.17c.06.06.13.1.19.15l.13.1.13.08,7,4.1-.26-.18-.19-.15-.18-.17-.17-.18-.09-.13a3.74,3.74,0,0,1-.43-.7l0,0a4.75,4.75,0,0,1-.27-.83,1.09,1.09,0,0,1,0-.17c0-.09,0-.19,0-.29s0-.22-.05-.34,0-.21,0-.32l0-.47,0-20.87a13.54,13.54,0,0,1,6.15-10.66l148.69-85.84c1.71-1,3.27-1.08,4.39-.43Z" transform="translate(-671.44 -143.34)"/><path class="cls-8" d="M1342.32,188.1c3.4-2,6.18-.39,6.19,3.53l.06,20.86a13.57,13.57,0,0,1-6.16,10.66L1193.73,309c-3.41,2-6.18.38-6.2-3.53l0-20.87a13.54,13.54,0,0,1,6.15-10.66Z" transform="translate(-671.44 -143.34)"/><path class="cls-7" d="M1339.82,280.29c-1.12-.65-2.67-.56-4.39.43l-309,178.41a13.54,13.54,0,0,0-6.15,10.66l.05,20.86c0,.07,0,.15,0,.23a2.29,2.29,0,0,0,0,.25c0,.1,0,.21,0,.31s0,.23,0,.34,0,.2.05.29,0,.06,0,.09,0,0,0,.08a4.14,4.14,0,0,0,.28.84v0h0a3.74,3.74,0,0,0,.43.7.25.25,0,0,0,0,.07l.05.06.17.18.18.17.19.15.13.1.13.07,7.05,4.1a1.7,1.7,0,0,1-.26-.18,1.39,1.39,0,0,1-.19-.15l-.18-.17a1.45,1.45,0,0,1-.17-.18l-.09-.12a3.28,3.28,0,0,1-.43-.7l0,0a6.36,6.36,0,0,1-.28-.84c0-.06,0-.11,0-.17a2.5,2.5,0,0,1,0-.29c0-.11,0-.22,0-.34s0-.21,0-.32,0-.31,0-.48l-.06-20.85a13.57,13.57,0,0,1,6.16-10.66l309-178.41c1.71-1,3.27-1.08,4.39-.43Z" transform="translate(-671.44 -143.34)"/><path class="cls-8" d="M1342.48,284.82c3.41-2,6.18-.39,6.19,3.53l.06,20.86a13.56,13.56,0,0,1-6.15,10.66l-309,178.41c-3.41,2-6.19.39-6.2-3.54l-.06-20.85a13.57,13.57,0,0,1,6.16-10.66Z" transform="translate(-671.44 -143.34)"/><path class="cls-7" d="M1346.29,390.53l-7-4.1c-1.12-.65-2.68-.56-4.39.43L1106,519a13.55,13.55,0,0,0-6.15,10.66l.06,20.86v.23a1.94,1.94,0,0,1,0,.24,3.16,3.16,0,0,0,0,.32c0,.12,0,.23,0,.34a2.5,2.5,0,0,0,0,.29.19.19,0,0,0,0,.08l0,.09a4.36,4.36,0,0,0,.28.84v0h0a3.83,3.83,0,0,0,.43.71.16.16,0,0,1,0,.07l.06,0,.17.18.17.17c.06.06.13.1.19.15l.14.1.12.08h0l7,4.09-.26-.17-.19-.15-.18-.17-.17-.18-.09-.13a3.74,3.74,0,0,1-.43-.7v0a4,4,0,0,1-.28-.83l-.05-.17c0-.1,0-.2,0-.29s0-.23,0-.34,0-.21,0-.32,0-.31,0-.48l-.06-20.85a13.56,13.56,0,0,1,6.15-10.67L1341.9,391a4.64,4.64,0,0,1,3.95-.64,3.55,3.55,0,0,1,.44.21Z" transform="translate(-671.44 -143.34)"/><path class="cls-8" d="M1341.9,391c3.41-2,6.18-.39,6.19,3.53l.06,20.86A13.56,13.56,0,0,1,1342,426L1113.15,558.13c-3.41,2-6.18.39-6.19-3.53l-.06-20.85a13.56,13.56,0,0,1,6.15-10.67Z" transform="translate(-671.44 -143.34)"/></g></svg>