<svg xmlns="http://www.w3.org/2000/svg" xmlns:xlink="http://www.w3.org/1999/xlink" viewBox="0 0 835.82609 865.17391"><defs><clipPath id="clip-path"><rect x="-563.01081" y="87.49479" width="2022.84476" height="1137.85018" fill="none"/></clipPath><clipPath id="clip-path-4"><rect x="163.85212" y="466.73394" width="666.55045" height="390.40482" fill="none"/></clipPath><clipPath id="clip-path-6"><rect x="163.85212" y="655.08183" width="666.55045" height="202.05693" fill="none"/></clipPath><clipPath id="clip-path-7"><rect x="163.85212" y="466.73394" width="666.54003" height="386.11469" fill="none"/></clipPath><clipPath id="clip-path-9"><rect x="283.0303" y="536.01741" width="311.13142" height="179.68131" fill="none"/></clipPath><clipPath id="clip-path-10"><rect x="190.37876" y="638.5946" width="54.67896" height="31.67228" fill="none"/></clipPath><clipPath id="clip-path-11"><rect x="236.30259" y="509.14623" width="325.98879" height="188.31317" fill="none"/></clipPath><clipPath id="clip-path-12"><rect x="274.96741" y="589.63225" width="54.68526" height="31.67653" fill="none"/></clipPath><clipPath id="clip-path-13"><rect x="232.77208" y="613.96855" width="54.68217" height="31.6744" fill="none"/></clipPath><clipPath id="clip-path-16"><rect x="333.0873" y="594.96123" width="293.68233" height="183.37612" fill="none"/></clipPath><clipPath id="clip-path-17"><rect x="314.37598" y="494.86941" width="405.75003" height="295.68616" fill="none"/></clipPath><clipPath id="clip-path-19"><rect x="314.90276" y="556.50187" width="404.69647" height="234.0537" fill="none"/></clipPath><clipPath id="clip-path-20"><rect x="314.37598" y="494.86941" width="405.75003" height="235.1072" fill="none"/></clipPath><clipPath id="clip-path-21"><rect x="314.90276" y="495.39619" width="404.69647" height="234.05363" fill="none"/></clipPath><clipPath id="clip-path-23"><rect x="409.44864" y="589.8725" width="216.52027" height="125.05499" fill="none"/></clipPath><clipPath id="clip-path-24"><path d="M411.19965,705.28631c-2.32731,1.34333-2.33258,3.52315-.02739,4.86223l6.4889,3.77069a9.24108,9.24108,0,0,0,8.39483,0L624.21571,599.51155c2.32847-1.34326,2.34-3.51784.02843-4.86219l-6.48987-3.77069a9.25173,9.25173,0,0,0-8.3938,0Z" fill="none"/></clipPath><linearGradient id="linear-gradient" x1="-2194.34678" y1="-81.8846" x2="-2193.29322" y2="-81.8846" gradientTransform="matrix(205.51305, 0, 0, -205.51305, 451376.34021, -16175.95539)" gradientUnits="userSpaceOnUse"><stop offset="0" stop-color="#b0325f"/><stop offset="1" stop-color="#d74353"/></linearGradient><clipPath id="clip-path-25"><rect x="339.021" y="575.90118" width="169.88626" height="98.12796" fill="none"/></clipPath><clipPath id="clip-path-26"><path d="M340.77516,664.39113c-2.32731,1.34435-2.33888,3.51893-.0337,4.86013l6.48891,3.77069a9.24737,9.24737,0,0,0,8.39482,0l151.52475-87.48274c2.32731-1.34435,2.34-3.51894.0274-4.86329l-6.48891-3.77068a9.24076,9.24076,0,0,0-8.38852.00418Z" fill="none"/></clipPath><linearGradient id="linear-gradient-2" x1="-2192.11271" y1="-83.57507" x2="-2191.05914" y2="-83.57507" gradientTransform="matrix(161.24503, 0, 0, -161.24503, 353806.29111, -12851.09856)" xlink:href="#linear-gradient"/><clipPath id="clip-path-27"><rect x="385.89827" y="627.32569" width="128.03451" height="73.96764" fill="none"/></clipPath><clipPath id="clip-path-28"><path d="M387.65141,691.65215c-2.32731,1.34435-2.34,3.51784-.0274,4.86326l6.48891,3.77068a9.24737,9.24737,0,0,0,8.39482,0l109.67088-63.31923c2.32731-1.34332,2.33991-3.51893.02842-4.86219l-6.4889-3.77178a9.24737,9.24737,0,0,0-8.39482,0Z" fill="none"/></clipPath><linearGradient id="linear-gradient-3" x1="-2188.67675" y1="-86.16687" x2="-2187.62319" y2="-86.16687" gradientTransform="matrix(121.52522, 0, 0, -121.52522, 266365.3283, -9807.13812)" xlink:href="#linear-gradient"/><clipPath id="clip-path-29"><rect x="362.47542" y="531.55243" width="270.23633" height="156.06561" fill="none"/></clipPath><clipPath id="clip-path-30"><path d="M364.22643,677.98317c-2.32094,1.33908-2.33991,3.51893-.02739,4.86219l6.4826,3.76654a9.25194,9.25194,0,0,0,8.3938,0l251.8799-145.42254c2.32744-1.34326,2.339-3.51785.02739-4.8622l-6.48253-3.7665a9.23893,9.23893,0,0,0-8.3938,0Z" fill="none"/></clipPath><linearGradient id="linear-gradient-4" x1="-2195.98961" y1="-80.64599" x2="-2194.93604" y2="-80.64599" gradientTransform="matrix(256.49457, 0, 0, -256.49457, 563621.88129, -20075.67262)" xlink:href="#linear-gradient"/><clipPath id="clip-path-31"><path d="M500.1785,788.33359s-38.57,22.29344-39.48129,22.94349c-2.73822,2.65076.0263,4.55771.0263,4.55771l40.07238,23.04464a12.92563,12.92563,0,0,0,7.20217,0l39.8131-23.04464c2.64446-2.58334-.03048-4.55456-.03048-4.55456l-39.73941-22.94349a9.66165,9.66165,0,0,0-3.61166-.6353,15.17318,15.17318,0,0,0-4.25111.63215" fill="none"/></clipPath><linearGradient id="linear-gradient-5" x1="-2182.65103" y1="-90.76998" x2="-2181.59747" y2="-90.76998" gradientTransform="matrix(84.94147, 0, 0, -84.94147, 185857.06841, -6896.24917)" gradientUnits="userSpaceOnUse"><stop offset="0" stop-color="#d74353"/><stop offset="1" stop-color="#b0325f"/></linearGradient><clipPath id="clip-path-33"><rect x="446.02948" y="633.29726" width="359.45639" height="208.42993" fill="none"/></clipPath><clipPath id="clip-path-34"><rect x="-528.04728" y="-110.1771" width="1537.54463" height="864.86885" fill="none"/></clipPath><clipPath id="clip-path-36"><rect x="47.23706" y="82.21696" width="399.07851" height="458.54467" fill="none"/></clipPath><clipPath id="clip-path-40"><rect x="64.79869" y="27.60453" width="390.32572" height="249.04057" fill="none"/></clipPath><clipPath id="clip-path-41"><rect x="31.51007" y="257.34251" width="24.47737" height="37.81558" fill="none"/></clipPath><linearGradient id="New_Gradient_Swatch_2" x1="333.08028" y1="277.94542" x2="530.69708" y2="277.94542" gradientUnits="userSpaceOnUse"><stop offset="0" stop-color="#8c274a"/><stop offset="1" stop-color="#a6333f"/></linearGradient><linearGradient id="linear-gradient-6" x1="338.72394" y1="279.75248" x2="531.91965" y2="279.75248" gradientTransform="matrix(1, 0, 0, 1, 0, 0)" xlink:href="#linear-gradient"/><linearGradient id="New_Gradient_Swatch_2-2" x1="400.81004" y1="96.16406" x2="533.96787" y2="96.16406" xlink:href="#New_Gradient_Swatch_2"/><linearGradient id="New_Gradient_Swatch_1" x1="406.45351" y1="97.97056" x2="535.45757" y2="97.97056" gradientUnits="userSpaceOnUse"><stop offset="0" stop-color="#b0325f"/><stop offset="0.96217" stop-color="#d74353"/></linearGradient><linearGradient id="New_Gradient_Swatch_2-3" x1="272.55087" y1="210.68128" x2="534.09847" y2="210.68128" xlink:href="#New_Gradient_Swatch_2"/><linearGradient id="New_Gradient_Swatch_1-2" x1="278.19516" y1="212.48806" x2="535.58817" y2="212.48806" xlink:href="#New_Gradient_Swatch_1"/></defs><title>bloonbot iso art 1.3</title><g id="panel-2" data-name="panel"><g clip-path="url(#clip-path)"><g clip-path="url(#clip-path)"><g clip-path="url(#clip-path)"><g clip-path="url(#clip-path-4)"><g style="isolation:isolate"><g clip-path="url(#clip-path-4)"><g clip-path="url(#clip-path-6)"><path d="M830.38958,664.50064v0a4.27528,4.27528,0,0,1-.491,1.97543,7.44386,7.44386,0,0,1-3.01948,2.93106L512.64277,850.831a12.85011,12.85011,0,0,1-1.50659.72909c-.07266.02845-.14115.06109-.21388.08954a15.67,15.67,0,0,1-1.57507.52048c-.09794.0274-.19594.05476-.29606.08006-.54363.13906-1.09883.256-1.66568.34557-.09273.01579-.18648.0274-.27914.04-.589.08427-1.18739.15067-1.789.18227-.07479.00422-.14957.00316-.22545.00631-.34872.01475-.69848.02318-1.04932.02-.14539-.00209-.28976-.00843-.43618-.01264-.28448-.00842-.571-.02212-.85448-.04215-.16224-.01158-.32339-.02527-.48357-.04q-.35553-.03477-.70587-.08218c-.16436-.02212-.32872-.04318-.491-.06955-.23915-.0379-.47412-.08321-.709-.12957-.14964-.02952-.29928-.05691-.44673-.09061-.41515-.09378-.826-.197-1.22429-.31923-.02733-.00843-.05267-.019-.08006-.0274-.37084-.11485-.73114-.24442-1.082-.38454-.09163-.03582-.18018-.07691-.27078-.11591a12.48443,12.48443,0,0,1-1.42441-.69638L167.30212,659.91238c-.26024-.15066-.50041-.30866-.73114-.46987-.06958-.04849-.13491-.099-.2023-.14752-.16018-.119-.31291-.23914-.45727-.36242-.06321-.05375-.12745-.10745-.18751-.16121-.16121-.14539-.31188-.29393-.452-.44351-.02636-.02951-.05581-.05588-.08218-.0843a6.06207,6.06207,0,0,1-.43721-.54787c-.03581-.05055-.06745-.10218-.10115-.15273q-.13908-.20863-.25284-.41933c-.03376-.06218-.06534-.12327-.09588-.18545a4.7002,4.7002,0,0,1-.18861-.44775c-.01684-.04534-.03684-.09061-.05163-.13594a4.21383,4.21383,0,0,1-.10643-.42666c-.01575-.07061-.03787-.14012-.04951-.2097a3.92521,3.92521,0,0,1-.05369-.63629l.01157,4.29432a4.13841,4.13841,0,0,0,.05376.63526c.01157.07061.03369.13909.04951.2097.0274.12745.04952.255.08952.38242.00527.01369.01266.02951.01794.04424.01472.04636.03472.09273.05163.13909a4.76294,4.76294,0,0,0,.18854.4446c.02952.06321.06219.1243.09485.18545q.11536.21172.25388.42036c.03376.05055.0643.10218.10115.15273a6.21709,6.21709,0,0,0,.43727.54787c.02527.02842.05684.05582.08321.0843.14012.14958.28975.29812.4509.44351.06006.05376.12327.10752.18648.16121q.2181.18337.4583.36139c.06643.05055.1317.10006.20231.14855.22969.16121.471.31818.73011.46987L495.84688,855.12954a12.73381,12.73381,0,0,0,1.42332.69535c.05061.02106.09382.05058.14436.07058.04109.01684.08534.02845.12643.0453q.5278.21018,1.08308.38457c.02739.00843.05163.01894.08006.0274.39823.12221.80811.22545,1.22423.3192.03794.00843.07375.0211.11169.02952.10958.02318.22333.039.334.06109.2349.04636.4709.09166.71011.1296.16224.02634.32551.0474.48988.06952q.3508.04585.70484.08115c.08321.00842.16539.02106.24866.02842.07794.0074.157.00634.236.01267.28442.02.5689.03264.85544.04212.1454.00421.29079.01055.43618.01161.35085.00315.69957-.00421,1.04939-.019.06533-.00315.13272-.00106.19908-.00421.00849,0,.01692-.00213.02637-.00213.60266-.03266,1.199-.0969,1.79-.18227.09273-.01369.18545-.02527.27709-.04.56787-.08954,1.12314-.20648,1.66677-.3466.099-.0253.197-.0527.29606-.079a15.57641,15.57641,0,0,0,1.57507-.52045c.07164-.02845.14115-.06112.21176-.09063a12.6346,12.6346,0,0,0,1.50871-.728l314.23624-181.4249c2.34312-1.35277,3.51578-3.13015,3.51051-4.9054Z" fill="#7a7a7a"/></g><g clip-path="url(#clip-path-7)"><path d="M167.36276,650.17617c-4.65468,2.68767-4.68632,7.04835-.06115,9.736L495.83377,850.835c4.62516,2.68661,12.155,2.68343,16.80964-.00315l314.23515-181.4249c4.65474-2.68664,4.68625-7.04835.06224-9.736L498.40762,468.74808c-4.62517-2.68767-12.15394-2.68342-16.80856.00425Z" fill="#cecece"/></g></g></g></g></g><g clip-path="url(#clip-path)"><g opacity="0.08"><g clip-path="url(#clip-path-9)"><path d="M284.77764,706.065c-2.321,1.33911-2.33264,3.51472-.02109,4.858l6.48993,3.77069a9.23836,9.23836,0,0,0,8.38113,0L592.41855,545.65132c2.32-1.34011,2.33258-3.51469.02637-4.8548l-6.489-3.77075a9.23872,9.23872,0,0,0-8.38737-.00418Z"/></g></g><g opacity="0.08"><g clip-path="url(#clip-path-10)"><path d="M192.13241,651.99933c-2.32738,1.34332-2.34,3.51893-.0274,4.86225L213.44388,669.262a9.23849,9.23849,0,0,0,8.38743-.00418l21.478-12.39939c2.321-1.34017,2.33265-3.51578.0274-4.85486L221.9978,639.60206a9.24164,9.24164,0,0,0-8.38743-.00315Z"/></g></g><g opacity="0.08"><g clip-path="url(#clip-path-11)"><path d="M238.05045,679.194c-2.321,1.33914-2.33264,3.51475-.02109,4.858l21.33887,12.40045a9.25376,9.25376,0,0,0,8.38852.00421L560.5477,527.41424c2.321-1.34011,2.32628-3.51887.02006-4.859l-21.33894-12.40048a9.239,9.239,0,0,0-8.38749-.00418Z"/></g></g><g opacity="0.08"><g clip-path="url(#clip-path-12)"><path d="M276.72061,603.041c-2.32737,1.34332-2.34,3.51791-.0274,4.86226l21.33888,12.40041a9.23847,9.23847,0,0,0,8.38742-.00418l21.478-12.40048c2.32737-1.34326,2.34-3.51784.03376-4.858l-21.33791-12.40042a9.24724,9.24724,0,0,0-8.39476,0Z"/></g></g><g opacity="0.08"><g clip-path="url(#clip-path-13)"><path d="M234.5229,627.37688c-2.321,1.34017-2.34,3.51893-.02739,4.86225l21.33887,12.40042a9.25472,9.25472,0,0,0,8.38743-.00315l21.478-12.40042c2.32737-1.34435,2.34-3.51893.03376-4.8591l-21.33791-12.40042a9.24724,9.24724,0,0,0-8.39476,0Z"/></g></g></g><g clip-path="url(#clip-path)"><path d="M594.16673,508.34313a2.96441,2.96441,0,0,1-1.74792,2.44428L299.62787,679.8298a6.71326,6.71326,0,0,1-.88181.41721c-.10327.04006-.21388.06848-.3203.1043-.21285.07376-.42878.14334-.65321.20018-.13066.03164-.26442.05479-.39824.08218-.20969.04219-.42248.08115-.63847.10855-.14225.019-.28655.03266-.43091.04424q-.27972.02373-.56157.03157c-.28969.00849-.57836.00213-.866-.01369-.14224-.00733-.28345-.01049-.4246-.02418-.26552-.02534-.52466-.06958-.78278-.11594-.12855-.02315-.26024-.03788-.38666-.06637a7.92579,7.92579,0,0,1-1.18636-.36454,6.199,6.199,0,0,1-.85126-.40351l-6.4889-3.77069a4.79781,4.79781,0,0,1-.68272-.48569c-.06109-.05163-.11376-.10533-.16855-.15806a3.419,3.419,0,0,1-.353-.38872c-.04425-.05794-.08958-.11594-.12855-.17491a2.46508,2.46508,0,0,1-.24545-.48042c-.01157-.03054-.03164-.06109-.04218-.09272a2.08035,2.08035,0,0,1-.10636-.63533l.0126,4.29438a2.04492,2.04492,0,0,0,.09588.61212c.00212.00733.00739.01472.00952.02315.01157.03163.03054.06218.04314.09375a2.49137,2.49137,0,0,0,.24552.47939c.03794.059.08321.117.12854.17594a3.40528,3.40528,0,0,0,.35188.38775c.05581.05267.10745.10534.16854.157a4.65487,4.65487,0,0,0,.68381.48672l6.48891,3.77069a6.26282,6.26282,0,0,0,.78278.38351c.02109.0074.04636.01158.06745.02007a7.98336,7.98336,0,0,0,1.18732.36447c.019.00425.03582.01267.05588.01692.10745.02315.22121.02945.33078.04951.25921.0463.51733.09061.78285.11691.04314.00315.08321.01479.12642.01794.099.00842.19909,0,.29709.00527.28975.01575.57629.02212.866.0137.07478-.00213.14854.00733.2223.00315.11478-.0063.22648-.02527.3403-.03582.1443-.01158.28757-.02424.4309-.04321.217-.02843.42776-.06637.63842-.10958.13382-.02636.26763-.04951.3983-.08218.22436-.05582.43933-.12642.65321-.19909.10636-.03588.21593-.06533.3192-.10539a6.27692,6.27692,0,0,0,.88181-.41618l292.792-169.04233a2.96666,2.96666,0,0,0,1.74793-2.44428Z" fill="#911c1c"/><path d="M284.77764,671.20065c-2.321,1.33914-2.33264,3.51476-.02109,4.858l6.48993,3.77069a9.23185,9.23185,0,0,0,8.38113,0L592.41855,510.787c2.32-1.33908,2.33258-3.51469.02637-4.8548l-6.489-3.77075a9.245,9.245,0,0,0-8.38737-.00418Z" fill="#db2c2c"/><path d="M192.13241,617.13548c-2.32738,1.34332-2.34,3.51791-.0274,4.86226l21.33887,12.40042a9.23849,9.23849,0,0,0,8.38743-.00418l21.478-12.40048c2.321-1.33908,2.33265-3.5147.0274-4.85377L221.9978,604.73822a9.24164,9.24164,0,0,0-8.38743-.00315Z" fill="#db2c2c"/><path d="M562.29228,490.1074a2.96052,2.96052,0,0,1-1.74471,2.44222L267.75656,661.593a6.71646,6.71646,0,0,1-.88181.41618c-.10327.04-.21284.06849-.3192.1043-.21285.07267-.42885.14328-.65327.19909-.13061.03164-.26545.05479-.39824.08218-.21066.04212-.42248.08116-.63842.10855-.14224.019-.2866.03267-.4309.04424-.18648.01582-.373.02527-.56157.03157q-.433.0111-.86606-.01472c-.14224-.0074-.28441-.00952-.42666-.02315-.26551-.02637-.52678-.07061-.786-.117-.12854-.02322-.26024-.039-.38557-.06636a8.04642,8.04642,0,0,1-1.1895-.36564,6.31924,6.31924,0,0,1-.85024-.40351l-21.33887-12.40042a4.817,4.817,0,0,1-.68375-.48569c-.06115-.05163-.11279-.10539-.16861-.15806a3.40831,3.40831,0,0,1-.35187-.38878c-.04424-.05794-.0906-.11588-.12957-.17485a2.4784,2.4784,0,0,1-.24442-.47939c-.01267-.03164-.03267-.06218-.04219-.09485a2.06464,2.06464,0,0,1-.10745-.63423l.01267,4.29432a2.051,2.051,0,0,0,.0969.61211.09976.09976,0,0,0,.00946.02219c.01054.0326.03061.06212.04218.09478a2.487,2.487,0,0,0,.24545.47939c.039.059.0843.11691.12855.17491a3.41984,3.41984,0,0,0,.353.38872c.05479.05267.10643.10642.16752.157a4.78542,4.78542,0,0,0,.68375.48678l21.33893,12.40048a6.58145,6.58145,0,0,0,.78278.38345c.02212.0074.04636.01164.06848.02006a7.86962,7.86962,0,0,0,1.18842.36448.58639.58639,0,0,0,.0569.01691c.10746.02418.22121.03055.32976.04952.26024.04739.51939.09163.78593.118.04424.00418.08533.01472.12964.019.09793.00842.198-.0011.296.00418.28976.01582.57636.02321.86715.01369.07478-.00212.14957.0074.22545.00425.11272-.00637.22333-.02534.33605-.03479.14437-.01267.28661-.02527.42988-.04321.217-.02952.42775-.06739.63951-.10958.13272-.0263.26654-.05054.39721-.08218.22545-.05684.44145-.12642.65635-.20018.10533-.03582.21491-.06424.31606-.10321a6.464,6.464,0,0,0,.88187-.41721L560.55914,496.84394a2.95983,2.95983,0,0,0,1.74574-2.44215Z" fill="#911c1c"/><path d="M238.05045,644.3296c-2.321,1.34017-2.33264,3.51476-.02109,4.858l21.33887,12.40151a9.26032,9.26032,0,0,0,8.38852.00425L560.5477,492.54988c2.321-1.34011,2.32628-3.51887.02006-4.85795l-21.33894-12.40157a9.24213,9.24213,0,0,0-8.38749-.00315Z" fill="#db2c2c"/><path d="M276.72061,568.17719c-2.32737,1.34332-2.34,3.5179-.0274,4.86225l21.33888,12.40042a9.23847,9.23847,0,0,0,8.38742-.00418l21.478-12.40048c2.32737-1.34326,2.34-3.51784.03376-4.858l-21.33791-12.40042a9.24724,9.24724,0,0,0-8.39476,0Z" fill="#db2c2c"/><path d="M243.30953,621.99382l-21.478,12.40048a6.63708,6.63708,0,0,1-.885.4183c-.10328.04-.21388.06848-.3203.10533-.21388.07273-.42879.14327-.65424.19915-.13066.03267-.26551.05582-.39933.08321-.21072.04212-.42248.08115-.63738.10957-.14437.019-.28976.03158-.43412.04425-.18752.01582-.375.02527-.5626.03163-.28867.00843-.57733.00206-.865-.01369-.14225-.0074-.28449-.01055-.42461-.02322-.26545-.02636-.52466-.0706-.78278-.117-.12854-.02315-.26024-.03787-.38666-.06636a7.96857,7.96857,0,0,1-1.18629-.36345,6.5891,6.5891,0,0,1-.85023-.40351L192.10411,621.997a4.77186,4.77186,0,0,1-.68265-.48466c-.06116-.05164-.11279-.10533-.16861-.15806a3.505,3.505,0,0,1-.35187-.38769c-.04425-.05794-.08958-.11588-.12855-.17491a2.48657,2.48657,0,0,1-.24545-.47933c-.01164-.03164-.03164-.06218-.04218-.09485a2.07052,2.07052,0,0,1-.10643-.63423l.01164,4.29432a2.08477,2.08477,0,0,0,.09691.61211.20679.20679,0,0,0,.01055.02212c.00945.03164.02951.06321.04211.09485a2.42893,2.42893,0,0,0,.24552.47939c.039.059.08321.11588.12848.17485a3.21071,3.21071,0,0,0,.35194.38666c.05581.05376.10745.10642.16854.15909a4.79519,4.79519,0,0,0,.68272.48569l21.33887,12.40048a6.42245,6.42245,0,0,0,.78284.38242c.021.00842.04637.01164.0674.02006a7.97173,7.97173,0,0,0,1.18635.36448c.019.00424.03582.01267.05479.01691.10745.02315.2223.02945.33187.04952.25812.04739.51624.09163.78278.11587.04212.00418.08321.01582.1254.02.099.0074.19908-.001.29811.00425.28873.01575.57527.02212.865.01369.07375-.00315.14745.0063.2212.00315.11594-.0063.22758-.02527.34242-.03478.1454-.01261.28867-.02528.432-.04425.217-.02842.42878-.06745.64054-.1106.13272-.02636.26654-.04951.39721-.08218.22545-.05588.44145-.12642.65533-.20018.10635-.03582.217-.06533.32023-.1054a6.4299,6.4299,0,0,0,.884-.4172l21.478-12.40042a2.96578,2.96578,0,0,0,1.74889-2.44428l-.01158-4.29432a2.96653,2.96653,0,0,1-1.74889,2.44422" fill="#911c1c"/><path d="M329.652,570.58622a2.97494,2.97494,0,0,1-1.75423,2.44956l-21.478,12.40048a6.43909,6.43909,0,0,1-.885.4172c-.10218.04007-.21388.06952-.32024.10643-.21387.07266-.42987.14327-.6543.19908-.1306.03267-.26551.05589-.39823.08219-.21176.04321-.42351.08218-.63951.11066-.14327.01788-.28764.03158-.432.04315-.18751.01691-.375.02637-.56363.03267-.28866.00842-.5763.00212-.86393-.01473-.14224-.0063-.28551-.00951-.42666-.02321-.26339-.02527-.52151-.06951-.7786-.11588-.12957-.02315-.26236-.03794-.38981-.06636a7.94864,7.94864,0,0,1-1.18526-.36454,6.4578,6.4578,0,0,1-.85127-.40242l-21.3379-12.40157a4.6459,4.6459,0,0,1-.68375-.48569c-.06109-.05055-.11273-.10431-.16752-.157a3.33192,3.33192,0,0,1-.353-.38872c-.04424-.058-.08951-.11594-.12745-.17388a2.43082,2.43082,0,0,1-.24655-.47939c-.01157-.0326-.03157-.06321-.04212-.09479a2.069,2.069,0,0,1-.10642-.63423l.01267,4.29432a2.04355,2.04355,0,0,0,.09587.61108.20841.20841,0,0,0,.01049.02212c.01054.03267.02951.06321.04218.09588a2.4789,2.4789,0,0,0,.24545.4783c.039.059.0843.117.12855.17491a3.31256,3.31256,0,0,0,.35187.38769c.05588.05376.10752.10642.16861.15806a4.777,4.777,0,0,0,.68272.48569l21.33887,12.40042a6.12549,6.12549,0,0,0,.78278.38248c.02109.00945.04636.0126.06745.021a8.00444,8.00444,0,0,0,1.18629.36454c.019.00424.03582.01267.05479.01685.10752.02321.2223.02951.33187.04951.25812.04637.51733.09061.78285.11594.04212.00418.08321.01576.12642.019.09794.00843.19909-.00109.29709.00528.28975.01472.57629.02212.86605.0126.07266-.00212.14642.00739.22018.00315.11485-.00527.22757-.02424.34133-.0337.14648-.01369.28975-.02527.43412-.04424.217-.02848.42769-.06745.63841-.10957.13382-.0274.26764-.05061.39933-.0843.22545-.05582.44036-.12643.65533-.19909.10533-.03582.21593-.06534.31921-.1054a6.43073,6.43073,0,0,0,.88393-.4172l21.479-12.40151a2.97335,2.97335,0,0,0,1.75416-2.44846Z" fill="#911c1c"/><path d="M285.7,597.37188l-21.478,12.40048a6.5485,6.5485,0,0,1-.88393.41618c-.10115.04-.21175.06951-.31709.10533-.21387.07273-.431.14327-.65642.20018-.1306.03164-.26442.05588-.39823.08218-.21073.04218-.42248.08115-.63951.10958-.14327.019-.28764.03163-.43194.04424q-.28136.02373-.56472.03163c-.28975.00843-.57945.00213-.86817-.01369-.14218-.0074-.28339-.00952-.42351-.02322-.26764-.02527-.52781-.07054-.787-.1169-.12746-.02322-.25812-.03794-.38352-.06533a7.9713,7.9713,0,0,1-1.18416-.36352,6.43927,6.43927,0,0,1-.85024-.40351L234.4957,597.37509a4.63605,4.63605,0,0,1-.68272-.48569c-.06109-.0506-.11273-.1043-.16751-.157a3.4191,3.4191,0,0,1-.353-.38872c-.04424-.05691-.08951-.11485-.12745-.17388a2.50834,2.50834,0,0,1-.24655-.48145c-.01157-.03054-.03054-.06109-.04109-.09169a2.04311,2.04311,0,0,1-.10533-.63527l.01158,4.29432a2.05327,2.05327,0,0,0,.0969.61321c.00213.00733.0074.01472.00952.02212.01048.03054.02945.06109.04109.09163a2.451,2.451,0,0,0,.24648.48151c.03794.059.08327.11588.12752.17382a3.33389,3.33389,0,0,0,.3529.38878c.05479.0537.10642.10636.16648.157a4.7561,4.7561,0,0,0,.68272.48569l21.33888,12.40048a6.24729,6.24729,0,0,0,.78072.38139c.02109.00946.04636.01261.06848.021a7.91172,7.91172,0,0,0,1.18526.36454c.019.00425.03479.01158.05376.01582.10745.02315.22121.02952.32975.04952.26024.04739.51939.09163.787.1169.04212.00425.08218.01479.1243.019.098.0074.198-.001.29708.00425.28976.01582.57945.02212.87024.01369.07375-.00212.14648.0074.22024.00315.11485-.0063.22757-.02527.34345-.03478.14539-.01261.28866-.02528.433-.04425.21593-.02842.42775-.06739.63841-.10957.13382-.02739.26764-.05054.39933-.08321.22545-.05582.44036-.12642.65533-.19915.10533-.03582.21593-.06527.31818-.10533a6.53847,6.53847,0,0,0,.8829-.41618l21.478-12.40042a2.97428,2.97428,0,0,0,1.75519-2.45064l-.0126-4.29323A2.976,2.976,0,0,1,285.7,597.37188" fill="#911c1c"/><path d="M234.5229,592.513c-2.321,1.33914-2.34,3.51894-.02739,4.86226l21.33887,12.40041a9.25468,9.25468,0,0,0,8.38743-.00315l21.478-12.40041c2.32737-1.34435,2.34-3.51894.03376-4.85911l-21.33791-12.40041a9.24718,9.24718,0,0,0-8.39476,0Z" fill="#db2c2c"/></g><g clip-path="url(#clip-path)"><g opacity="0.05"><g clip-path="url(#clip-path-16)"><path d="M334.84108,727.801c-2.32738,1.34332-2.34,3.51893-.03376,4.85907l6.4889,3.77069a9.24105,9.24105,0,0,0,8.39482,0L501.2158,648.948c2.32737-1.34325,2.33894-3.51887.02739-4.86219l-6.4889-3.77069a9.24376,9.24376,0,0,0-8.38846.00316Z"/><path d="M381.717,755.062c-2.32737,1.34332-2.34,3.51893-.02739,4.86222l6.4889,3.77069a9.24093,9.24093,0,0,0,8.39476,0l109.67088-63.3182c2.32731-1.34435,2.34-3.5189.02842-4.86325l-6.48993-3.77069a9.24522,9.24522,0,0,0-8.39379,0Z"/><path d="M358.29164,741.39233c-2.321,1.33911-2.34,3.51893-.02739,4.86222l6.48254,3.76648a9.254,9.254,0,0,0,8.39482,0L625.02055,604.59958c2.32731-1.34435,2.33991-3.51887.02739-4.86322l-6.48266-3.76651a9.23866,9.23866,0,0,0-8.39367,0Z"/><path d="M405.26537,768.69557c-2.32737,1.34332-2.33264,3.52315-.02739,4.86222l6.4889,3.77069a9.24093,9.24093,0,0,0,8.39476,0L618.28144,662.9219c2.32833-1.34435,2.33991-3.51894.02739-4.86329l-6.489-3.77069a9.25407,9.25407,0,0,0-8.39482,0Z"/></g></g><g clip-path="url(#clip-path-17)"><g style="isolation:isolate"><g clip-path="url(#clip-path-17)"><g opacity="0.03999"><g clip-path="url(#clip-path-19)"><path d="M316.65062,726.54886c-2.321,1.34013-2.33265,3.51575-.02109,4.85907L416.68026,789.551a9.24258,9.24258,0,0,0,8.38,0l292.791-169.04345c2.321-1.33908,2.33361-3.51469.02842-4.8548L617.829,557.51068a9.2386,9.2386,0,0,0-8.38749-.00418Z"/></g></g><g clip-path="url(#clip-path-20)"><g opacity="0.2"><g clip-path="url(#clip-path-21)"><path d="M316.65062,665.44315c-2.321,1.33914-2.33265,3.51475-.02109,4.858l100.05073,58.14307a9.23932,9.23932,0,0,0,8.38.00106l292.791-169.04342c2.321-1.34017,2.33361-3.51469.02842-4.85486L617.829,496.40391a9.24213,9.24213,0,0,0-8.38749-.00315Z" fill="#eee"/></g></g><g opacity="0.7"><g clip-path="url(#clip-path-20)"><path d="M316.65062,665.44315c-2.321,1.33914-2.33265,3.51475-.02109,4.858l100.05073,58.14307a9.23932,9.23932,0,0,0,8.38.00106l292.791-169.04342c2.321-1.34017,2.33361-3.51469.02842-4.85486L617.829,496.40391a9.24213,9.24213,0,0,0-8.38749-.00315Z" fill="none" stroke="#fff" stroke-miterlimit="10" stroke-width="1.05356"/></g></g></g></g></g></g><g opacity="0.7"><g clip-path="url(#clip-path-23)"><g clip-path="url(#clip-path-24)"><rect x="408.86707" y="589.53438" width="217.68856" height="125.72923" fill="url(#linear-gradient)"/></g></g></g><g opacity="0.7"><g clip-path="url(#clip-path-25)"><g clip-path="url(#clip-path-26)"><rect x="338.43628" y="575.56507" width="171.05364" height="98.80027" fill="url(#linear-gradient-2)"/></g></g></g><g opacity="0.7"><g clip-path="url(#clip-path-27)"><g clip-path="url(#clip-path-28)"><rect x="385.31137" y="626.98963" width="129.2071" height="74.63978" fill="url(#linear-gradient-3)"/></g></g></g><g opacity="0.7"><g clip-path="url(#clip-path-29)"><g clip-path="url(#clip-path-30)"><rect x="361.88652" y="531.21631" width="271.40783" height="156.73994" fill="url(#linear-gradient-4)"/></g></g></g></g><g clip-path="url(#clip-path-31)"><rect x="457.95893" y="787.70147" width="92.49669" height="52.36952" fill="url(#linear-gradient-5)"/></g><g clip-path="url(#clip-path)"><path d="M516.895,821.05448c-.48151.21073-.78181.53206-.79866.88606l-.10327,1.81528a24.97552,24.97552,0,0,1-5.02328,1.24111,36.74935,36.74935,0,0,1-8.9427.1243,41.93352,41.93352,0,0,1-16.17432-4.97071,16.49658,16.49658,0,0,1-6.334-5.7946,6.36054,6.36054,0,0,1,.235-6.91666,14.80818,14.80818,0,0,1,5.13189-4.47765c.06643-.04.14648-.079.22024-.12115a28.25374,28.25374,0,0,1,8.13561-3.07643,32.61672,32.61672,0,0,1,8.52543-.64372,33.32838,33.32838,0,0,1,14.64561,4.229,18.77954,18.77954,0,0,1,7.099,6.62166,7.75118,7.75118,0,0,1,.35715,7.7005,10.93476,10.93476,0,0,1-3.1607,3.541l-2.124-.33715a3.24452,3.24452,0,0,0-1.68889.17912m-7.22847.983a15.23831,15.23831,0,0,0,5.51431-1.80159,9.0569,9.0569,0,0,0,3.64741-3.46832,5.3959,5.3959,0,0,0,.47418-3.86869c-.609-2.64446-3.07221-5.35843-6.5669-7.376a26.05507,26.05507,0,0,0-8.38955-3.01636,24.22756,24.22756,0,0,0-9.25767.12012,22.14825,22.14825,0,0,0-6.295,2.39685l-.16861.09694a11.31145,11.31145,0,0,0-3.93608,3.402,4.45287,4.45287,0,0,0-.74593,3.29342c.3803,2.164,2.46531,4.35756,5.6197,6.17918a33.48218,33.48218,0,0,0,9.78232,3.57263,30.69244,30.69244,0,0,0,10.32184.46987" fill="#e8e8e8"/><path d="M524.88043,822.02712a1.1626,1.1626,0,0,1,.53193.56157c.156.41615-.09581.85127-.65732,1.12311l-5.61661,2.72661a3.1822,3.1822,0,0,1-2.13761.15067,2.32985,2.32985,0,0,1-.52576-.21809.96806.96806,0,0,1-.58054-.85339l.098-1.76156.10327-1.81528,1.97119.03791-1.97119-.03791c.01788-.354.31818-.67642.79957-.886a3.23067,3.23067,0,0,1,1.68786-.17912l2.125.33715,3.284.51836a2.59309,2.59309,0,0,1,.88817.296" fill="#e8e8e8"/><g opacity="0.08" style="isolation:isolate"><g clip-path="url(#clip-path-33)"><path d="M447.77682,803.34489c-2.321,1.33911-2.33264,3.51473-.02109,4.858l6.48993,3.77068a9.23836,9.23836,0,0,0,8.38113,0L755.41671,642.93123c2.321-1.34017,2.33361-3.51469.02739-4.85486l-6.489-3.77068a9.2448,9.2448,0,0,0-8.38736-.00425Z"/><path d="M473.4502,817.72435c-2.321,1.33911-2.32627,3.51893-.02109,4.858l6.48993,3.77069a9.23857,9.23857,0,0,0,8.38743.00421l292.791-169.04239c2.32-1.34011,2.33258-3.5147.01994-4.85905l-6.48884-3.77068a9.25184,9.25184,0,0,0-8.3875-.00425Z"/><path d="M496.09877,832.09361c-2.321,1.3391-2.33368,3.51472-.0211,4.858l6.4826,3.76753a9.24182,9.24182,0,0,0,8.38743.00315L803.73858,671.67991c2.321-1.3401,2.33374-3.51469.02109-4.85795l-6.48253-3.7676a9.2412,9.2412,0,0,0-8.38853-.00418Z"/></g></g><path d="M757.16579,602.12418h0a2.05315,2.05315,0,0,1-.10855.6606,3.42429,3.42429,0,0,1-1.64041,1.78367L462.62692,773.61191a6.53451,6.53451,0,0,1-.8829.41614c-.10218.039-.21278.06849-.31818.10537-.21388.07163-.42981.14224-.65423.198-.13067.03267-.26442.05691-.39824.08325-.2097.04215-.42248.08112-.63848.10957-.14224.01791-.28654.03161-.4309.04424-.18752.01476-.374.02425-.5626.03055-.28867.00845-.57733.00212-.865-.0137-.14225-.00736-.28449-.00945-.42564-.02315-.26448-.02636-.52363-.07061-.78175-.11591-.12854-.02424-.26133-.039-.38666-.06742a7.9819,7.9819,0,0,1-1.18738-.36454,6.44034,6.44034,0,0,1-.85024-.40245l-6.4889-3.77178a4.644,4.644,0,0,1-.68375-.4857c-.06109-.0516-.11272-.10533-.1686-.158a3.31819,3.31819,0,0,1-.35188-.3877c-.04424-.059-.08958-.1159-.12854-.1749a2.51768,2.51768,0,0,1-.24545-.47936c-.01158-.03161-.03267-.06321-.04219-.09485a2.06981,2.06981,0,0,1-.10636-.6353l.01158,4.29541a2.078,2.078,0,0,0,.0969.61106c.00213.00842.0074.01476.00952.02212.01048.0316.03055.06321.04212.09482a2.51938,2.51938,0,0,0,.24545.47939c.039.06.0843.11693.12855.17487a3.34414,3.34414,0,0,0,.353.38879c.05582.05266.10746.10639.16855.158a4.75552,4.75552,0,0,0,.68381.48569l6.4889,3.77175a6.47155,6.47155,0,0,0,.78175.38139c.02212.00948.04637.01263.06849.02212a8.0638,8.0638,0,0,0,1.18732.36348c.01794.00421.03581.01267.05588.01688.10636.02315.2212.02948.33078.04951.25812.04739.51623.09167.78175.11694.04321.00421.0843.01579.12751.019.099.00736.19909-.00106.29709.00527.28976.01473.57527.02106.86605.01264.0737-.00315.14745.00736.2223.00315.11376-.0063.22648-.02424.3403-.03476.1443-.01263.28654-.02424.43091-.04321.21593-.02842.42666-.06848.63951-.1106.13272-.02637.26654-.04952.39721-.08218.22332-.05585.43932-.12643.65423-.19912.10533-.03585.21491-.06534.31715-.10537a6.47705,6.47705,0,0,0,.88284-.41511L755.42944,608.86284a2.96806,2.96806,0,0,0,1.749-2.44428Z" fill="#525252"/><path d="M447.77682,764.98237c-2.321,1.33911-2.33264,3.51472-.02109,4.858l6.48993,3.77069a9.23836,9.23836,0,0,0,8.38113,0L755.41671,604.56871c2.321-1.34017,2.33361-3.51469.02739-4.85486l-6.489-3.77069a9.23851,9.23851,0,0,0-8.38736-.00424Z" fill="#8c8c8c"/><path d="M782.84438,616.509a2.96381,2.96381,0,0,1-1.7469,2.44325L488.3066,787.99563a6.58729,6.58729,0,0,1-.88187.41512c-.10321.04-.2149.07058-.3203.10639-.21278.07164-.42769.14118-.65211.197-.13067.03267-.26449.05688-.39824.08325-.21073.04211-.42248.08112-.63848.10954-.14224.01791-.2866.0316-.432.04427-.18648.01579-.373.02527-.56047.03055-.28764.00842-.5763.00209-.86394-.0137-.14224-.00633-.28551-.00949-.42666-.02318-.26551-.02527-.52363-.06955-.78175-.11588-.12957-.02424-.26236-.04006-.38878-.06745a7.90374,7.90374,0,0,1-1.19053-.36664,6.3386,6.3386,0,0,1-.8523-.40351l-6.49-3.77072a4.72369,4.72369,0,0,1-.68163-.48569c-.06115-.0516-.11273-.10536-.16751-.158a3.326,3.326,0,0,1-.353-.38875c-.04424-.058-.08958-.11485-.12752-.17385a2.52606,2.52606,0,0,1-.24757-.48254c-.01055-.03054-.03054-.06109-.04109-.09269a2.04325,2.04325,0,0,1-.10533-.6353l.01055,4.29432a2.09149,2.09149,0,0,0,.0969.61318.14512.14512,0,0,0,.01055.02212c.01054.0316.02951.06215.04109.09272a2.53794,2.53794,0,0,0,.24654.48148c.039.06.08424.11694.12855.17382a3.22937,3.22937,0,0,0,.35187.38981c.05479.0527.10642.10643.16751.15806a4.79549,4.79549,0,0,0,.68273.48463l6.4889,3.77072a6.24808,6.24808,0,0,0,.78593.38454c.02109.00843.04533.01264.06745.02106a7.9819,7.9819,0,0,0,1.19054.36455c.019.00527.03684.01369.05581.0179.10855.02319.2223.02952.33188.04952.25812.04742.51624.0906.78175.11591.04424.00524.08533.01685.12957.02.099.00842.19915-.00106.29709.00527.28873.01476.57527.02106.86393.01264.07485-.00209.14861.00739.22442.00318.11273-.00634.22443-.02424.33715-.03373.14539-.01264.28764-.02527.43193-.04424.216-.02739.42673-.0664.63848-.10958.13382-.02633.26655-.04951.39721-.08324.22443-.05479.4383-.12536.65321-.19806.10533-.03581.217-.06533.31921-.10536a6.5251,6.5251,0,0,0,.88187-.41615l292.7919-169.04239a2.96378,2.96378,0,0,0,1.7469-2.44318Z" fill="#525252"/><path d="M473.4502,779.36079c-2.321,1.34014-2.32627,3.51894-.02109,4.85908l6.48993,3.77068a9.2386,9.2386,0,0,0,8.38743.00422l292.791-169.04236c2.32-1.34017,2.33258-3.51469.01994-4.859l-6.48884-3.77076a9.25166,9.25166,0,0,0-8.3875-.00418Z" fill="#8c8c8c"/><path d="M805.48676,630.874a2.9673,2.9673,0,0,1-1.74792,2.44325L510.9479,802.36068a6.45544,6.45544,0,0,1-.88181.41512c-.10218.04-.21285.06951-.31715.10533-.21388.0727-.42981.14224-.65533.19915-.1306.03161-.26442.05582-.39714.08218-.21073.04212-.42358.08112-.63958.10955-.14217.0179-.28654.0316-.4309.04427-.18751.01579-.374.02527-.56151.03054-.28763.00843-.57629.00209-.8629-.01369-.14327-.00634-.28654-.00949-.42775-.02318-.26442-.02528-.52357-.06955-.78066-.11588-.12957-.02424-.26236-.039-.38981-.06746a8.05988,8.05988,0,0,1-1.19054-.36557,6.54185,6.54185,0,0,1-.85235-.40457l-6.48363-3.76754a4.80339,4.80339,0,0,1-.68272-.48569c-.06109-.05163-.11376-.10536-.16752-.15806a3.32971,3.32971,0,0,1-.353-.38875c-.04425-.05794-.08952-.11485-.12848-.17488a2.518,2.518,0,0,1-.24655-.47939c-.01054-.0316-.03164-.06321-.04218-.09481a2.06244,2.06244,0,0,1-.10533-.63321l.01157,4.29329a2.08527,2.08527,0,0,0,.09588.61211c.00315.00843.00842.01476.01055.02212.01054.03267.02951.06322.04212.09482a2.55055,2.55055,0,0,0,.24551.47939c.039.06006.08321.11694.12854.17488a3.31592,3.31592,0,0,0,.35188.38772c.05582.05373.10745.10745.16963.15909a4.7969,4.7969,0,0,0,.68273.48569l6.48253,3.76754a6.31475,6.31475,0,0,0,.786.38351c.02212.00949.04636.01264.06739.02106a8.02261,8.02261,0,0,0,1.19053.36454c.019.00528.03691.0137.05588.01791.10848.02318.22333.02952.33393.04952.25812.04742.51521.09166.78073.11693.04321.00422.0843.01582.12854.019.099.00843.19909,0,.29709.00528.28866.01475.57527.02106.865.01263.07375-.00209.1486.0074.22339.00319.11376-.00634.22545-.02425.33921-.03373.14436-.01264.28551-.02527.42884-.04424.217-.0274.42879-.0664.64163-.11064.13273-.02633.26442-.04845.39612-.08218.22442-.05479.43933-.12536.65533-.19806.1043-.03582.21387-.06533.316-.10536a6.51974,6.51974,0,0,0,.88181-.41615l292.792-169.04239a2.9673,2.9673,0,0,0,1.74793-2.44319Z" fill="#525252"/><path d="M496.09877,793.73005c-2.321,1.34014-2.33368,3.51473-.0211,4.858l6.4826,3.76859a9.24182,9.24182,0,0,0,8.38743.00315L803.73858,633.31745c2.321-1.34017,2.33374-3.51469.02109-4.859l-6.48253-3.7665a9.241,9.241,0,0,0-8.38853-.00425Z" fill="#8c8c8c"/></g></g></g></g><g id="forexport"><g clip-path="url(#clip-path-34)"><path d="M458.992,8.9739c4.37158-2.52412,7.92554-.49806,7.94069,4.51978l.86571,305.59738c.01525,5.02263-3.5171,11.14-7.88868,13.66334L24.0999,584.36953c-4.37163,2.52416-7.92637.49894-7.94079-4.52452l-.8665-305.59739c-.01359-5.01783,3.51794-11.13521,7.88952-13.65854Z" fill="#e0e0e0"/><path d="M464.62419,8.42173h.00078l-5.64415-3.27927c-1.439-.83682-3.43215-.71913-5.6328.55178L17.53744,257.30859c-4.37079,2.52411-7.90315,8.64149-7.88873,13.65932L10.5152,576.5653c0,.0977.0024.19458.00479.29067.00318.11134.0176.213.024.32034.00885.137.01687.27386.03124.406.016.14971.04007.29306.06329.43564.02082.12571.03925.25221.06486.37235.00719.03362.01119.07048.01843.1041.0304.13456.07126.25945.1089.3876.02.06726.03524.13774.05684.20182a5.71572,5.71572,0,0,0,.24106.623l.00641.01125c.016.03441.03524.064.052.0977a4.84967,4.84967,0,0,0,.25866.46844c.03925.06168.08245.11775.1241.177.05606.08089.109.16579.169.24023.02082.02566.04565.04565.06647.07126.06887.08172.14336.15616.217.23143.07449.07532.14737.15059.22665.21863.07849.06809.16178.12816.24507.18979.05846.04248.11129.09292.17136.13217.05206.03362.10489.06564.15773.09687l.00083.00083,5.64405,3.27927a3.56829,3.56829,0,0,1-.32914-.22982c-.08329-.06085-.16736-.12092-.24663-.189-.07767-.068-.15138-.14335-.225-.21862-.07448-.07444-.14892-.14972-.21779-.23222-.08329-.09771-.16017-.2026-.23544-.31071-.04165-.05846-.08569-.1153-.12415-.177a4.98776,4.98776,0,0,1-.25783-.466c-.01681-.03446-.03685-.06486-.05288-.1001a5.82375,5.82375,0,0,1-.24742-.63345c-.02165-.06486-.03764-.13534-.05689-.20181-.04644-.15934-.09048-.32191-.12733-.49249-.02561-.12092-.044-.24747-.06486-.37318-.02322-.14253-.04722-.2851-.06325-.43486-.01442-.13128-.02243-.26907-.03045-.406-.01359-.201-.02962-.39962-.02962-.611l-.86644-305.59822c-.01442-5.017,3.5171-11.13438,7.88868-13.65771L458.99207,8.97351a7.62218,7.62218,0,0,1,3.10233-1.06587,5.08929,5.08929,0,0,1,.69592-.01363,4.03733,4.03733,0,0,1,1.83465.52772Z" fill="#c7c7c7"/></g><path d="M67.68965,499.50612c.60227-.34774,1.0919-.06861,1.094.62269l.11927,42.10181a2.39455,2.39455,0,0,1-1.08681,1.88238l-36.021,20.63846c-.60227.34775-1.092.06874-1.094-.62334l-.11938-42.10181a2.39509,2.39509,0,0,1,1.08693-1.88172Z" fill="#5e2feb"/><path d="M61.25824,535.87427a7.2653,7.2653,0,0,0,1.16129,3.56223,13.51432,13.51432,0,0,1-4.6017.974,15.63865,15.63865,0,0,1-2.336,1.67938c-4.07978,2.35546-6.86623.7529-6.87586-2.64389-.01092-3.85162,3.26289-8.52682,6.88943-10.62061,3.652-2.10846,6.92257-1.18963,6.93343,2.64A10.01288,10.01288,0,0,1,61.25824,535.87427ZM59.8389,538.281a7.31343,7.31343,0,0,1-.15313-2.18227,7.785,7.785,0,0,0,1.15974-3.71919c-.00752-2.65578-2.40789-3.43038-5.34492-1.73469-2.93687,1.69561-5.3186,5.23115-5.31107,7.88693.00653,2.30365,2.03111,3.61854,5.28718,1.73864a15.88917,15.88917,0,0,0,2.6037-1.96616,4.00708,4.00708,0,0,0,1.7585-.02326" fill="#fff"/><path d="M47.60215,523.6826c-4.66085,2.691-8.43707,8.3396-8.425,12.58741a4.09716,4.09716,0,0,0,1.78846,3.75868,13.71216,13.71216,0,0,1-.34031,4.06173,22.75885,22.75885,0,0,0,3.16856-3.49745,15.89967,15.89967,0,0,0,2.75981-.99815,8.25952,8.25952,0,0,0,.06448,2.42453,16.45331,16.45331,0,0,1-2.45946.96432,49.29933,49.29933,0,0,1-7.01577,6.62254c.85009-2.43077,1.79375-5.63578,1.73739-7.46239a5.80568,5.80568,0,0,1-1.8165-4.65367c-.0166-5.8545,4.95132-13.00689,10.5315-16.2286,5.52908-3.19222,10.54656-1.85634,10.5824,3.99439a11.02183,11.02183,0,0,0-2.13363.84975C55.79011,522.196,52.10332,521.08385,47.60215,523.6826Z" fill="#fff"/><g clip-path="url(#clip-path-34)"><g opacity="0.08"><g clip-path="url(#clip-path-36)"><path d="M229.226,239.30759c2.72994-1.576,4.95136-.31066,4.96016,2.82686l.04726,16.70878a10.863,10.863,0,0,1-4.92814,8.53577L52.86077,369.24934c-2.73072,1.576-4.95136.3099-4.96016-2.82684l-.04726-16.70878a10.85968,10.85968,0,0,1,4.92814-8.53577Z"/><path d="M315.52831,359.95929c2.72989-1.576,4.95136-.31069,4.96016,2.83246l.04722,16.704a10.86086,10.86086,0,0,1-4.92732,8.535L52.24463,540.08424c-2.73078,1.57519-4.9522.30993-4.96021-2.82762l-.048-16.70237a10.86412,10.86412,0,0,1,4.92815-8.5414Z"/><path d="M367.4023,245.741c2.72989-1.57595,4.95136-.31067,4.96016,2.82686l.04721,16.70316a10.86585,10.86585,0,0,1-4.92731,8.54139L52.42185,455.712c-2.72994,1.576-4.95136.31071-4.96015-2.83246l-.04727-16.70319a10.86032,10.86032,0,0,1,4.92815-8.535Z"/><path d="M441.17876,82.89533c2.72989-1.576,4.95136-.31066,4.96016,2.82686l.04721,16.70878a10.86431,10.86431,0,0,1-4.92731,8.53577L322.18959,179.71022c-2.73,1.57678-4.95136.31071-4.96015-2.826l-.04732-16.70878a10.86289,10.86289,0,0,1,4.92741-8.53577Z"/><path d="M441.30936,160.3501c2.72989-1.576,4.95136-.31067,4.95938,2.82686l.048,16.70237a10.86607,10.86607,0,0,1-4.92731,8.54218L193.93125,331.29062c-2.73,1.57678-4.95141.31072-4.96021-2.83243l-.04726-16.70316a10.86031,10.86031,0,0,1,4.92819-8.535Z"/><path d="M440.84405,245.34564c2.72989-1.576,4.95136-.31066,4.96016,2.83248l.04721,16.70316a10.86224,10.86224,0,0,1-4.92731,8.53577L257.6632,379.22254c-2.72994,1.576-4.95136.30991-4.96016-2.82765l-.04727-16.70237a10.86242,10.86242,0,0,1,4.92737-8.54139Z"/></g></g></g><g clip-path="url(#clip-path-34)"><g clip-path="url(#clip-path-34)"><g clip-path="url(#clip-path-34)"><g opacity="0.08"><g clip-path="url(#clip-path-40)"><path d="M450.11821,28.2827c2.73067-1.57595,4.95214-.31066,4.96016,2.82687l.048,16.70315a10.86248,10.86248,0,0,1-4.9281,8.535L69.80572,275.96756c-2.72994,1.576-4.95057.31072-4.95937-2.82686l-.04805-16.70237a10.86261,10.86261,0,0,1,4.92815-8.53578Z"/></g></g><path d="M501.64654,18.25192a3.48913,3.48913,0,0,0-3.51877.34439L117.73684,238.21611a10.86327,10.86327,0,0,0-4.92893,8.535l.048,16.70316c0,.06085.00078.12171.00239.18178.0024.06886.01119.13216.0152.2002.00562.0849.01041.17136.01921.25308.01124.0937.02566.18256.04008.27225.01281.0785.02483.15777.04081.23305.004.02082.00641.044.01124.06407.00558.02562.0176.04565.02322.07044a3.87887,3.87887,0,0,0,.2242.66707c.00323.00641.004.01442.00723.02l.0024.00479a2.96247,2.96247,0,0,0,.34434.56136c.01281.01681.02082.03925.03363.05528s.028.02883.04164.04482c.04326.05127.09047.0977.13695.145.04566.04643.09126.09369.14014.13612.04965.04247.10171.08089.15376.11931.036.02566.06887.05689.10651.08172q.04919.03123.09848.06l.00079.00083,5.64409,3.27928a2.2398,2.2398,0,0,1-.20582-.14253c-.05205-.03847-.10411-.0761-.15377-.11853-.04882-.04242-.09526-.08969-.14091-.137-.04648-.04722-.09291-.09287-.13617-.14414-.02639-.032-.05044-.068-.076-.10088a2.99627,2.99627,0,0,1-.34356-.56058c-.004-.008-.0064-.01681-.00958-.02483a3.92691,3.92691,0,0,1-.22425-.66707c-.01041-.04565-.02483-.08886-.03441-.13534-.016-.07527-.02806-.15455-.04086-.233-.01442-.08891-.02962-.17782-.03925-.27068-.00958-.08329-.01442-.1698-.02-.25627-.00723-.12493-.01765-.24824-.01765-.37958l-.04721-16.70237a10.863,10.863,0,0,1,4.92814-8.53661l380.39089-219.619a3.49111,3.49111,0,0,1,3.51877-.34434Z" fill="#a4a4a4"/><path d="M503.77211,21.87627c2.73067-1.576,4.95214-.31067,4.96016,2.82686l.048,16.70316a10.86248,10.86248,0,0,1-4.9281,8.535L123.45963,269.56113c-2.72994,1.576-4.95058.31071-4.95938-2.82686l-.048-16.70238a10.86258,10.86258,0,0,1,4.92815-8.53577Z" fill="#c3c3c3"/><path d="M104.148,253.67241l-5.6441-3.28005a3.493,3.493,0,0,0-3.52356.346l-14.53618,8.39242A10.86508,10.86508,0,0,0,75.516,267.6665l.048,16.70316c0,.0609.00078.12175.00239.18182.0024.06887.01125.13212.0152.19937.00563.08568.01042.17136.01926.25387.01041.0937.02561.18256.04.27225.01281.07771.024.157.04.23143.00479.02165.00641.04487.012.06569.00562.02561.01681.04565.02321.07048a3.92639,3.92639,0,0,0,.22342.66708c.00323.00557.004.01359.00724.02l.00317.00479a2.96846,2.96846,0,0,0,.34356.56057c.01281.01681.0216.04.03441.05606s.02806.02806.04164.044c.04326.05127.08969.09849.13618.145.04643.04722.09208.09448.14091.13612a1.82847,1.82847,0,0,0,.15377.11853c.036.02644.06886.05846.1065.08246.032.02165.06486.04164.09849.0609l5.64409,3.28005a2.24616,2.24616,0,0,1-.20582-.14331c-.05127-.03763-.10411-.07527-.15293-.11774-.04888-.04321-.09531-.09047-.14175-.13691-.04565-.04726-.09213-.09369-.13534-.145-.02722-.032-.05044-.06725-.0761-.10088a2.96235,2.96235,0,0,1-.34434-.56057l-.0088-.024a3.814,3.814,0,0,1-.22425-.667c-.01119-.04565-.02478-.0889-.03519-.13534-.016-.07527-.02727-.15455-.04008-.233-.01442-.08891-.02962-.17777-.04-.27069-.0088-.08328-.01359-.16975-.01921-.25626-.008-.12493-.01764-.24825-.01764-.38036l-.04805-16.70238a10.86247,10.86247,0,0,1,4.92819-8.53577l14.53619-8.39246a3.73892,3.73892,0,0,1,3.17037-.51331,2.30112,2.30112,0,0,1,.35319.16735h0" fill="#a4a4a4"/><path d="M100.62414,254.01846c2.73551-1.57917,4.95615-.31389,4.96578,2.82364l.04721,16.70321a10.86519,10.86519,0,0,1-4.93293,8.53816L86.168,290.47589c-2.73,1.57683-4.95141.31071-4.96021-2.826l-.04726-16.70316a10.86043,10.86043,0,0,1,4.92819-8.53577Z" fill="#c3c3c3"/><g opacity="0.08"><g clip-path="url(#clip-path-41)"><path d="M50.97426,258.02249c2.73551-1.57918,4.95615-.31389,4.96578,2.82363l.04721,16.70321a10.86522,10.86522,0,0,1-4.93293,8.53817l-14.53619,8.39241c-2.73,1.57683-4.95141.31071-4.9602-2.826l-.04727-16.70316a10.86045,10.86045,0,0,1,4.92819-8.53577Z"/></g></g><path d="M466.93589,352.60422c2.73067-1.576,4.95214-.31069,4.96016,2.82687l.048,16.70958a10.86374,10.86374,0,0,1-4.92809,8.535L86.6234,600.29546c-2.72994,1.576-4.95058.30991-4.95938-2.82764L81.616,580.759a10.86242,10.86242,0,0,1,4.92814-8.535Z" fill="#c3c3c3"/><path d="M464.81031,348.98024a3.48916,3.48916,0,0,0-3.51877.34437L80.90061,568.94441a10.86208,10.86208,0,0,0-4.92893,8.535l.048,16.70878c0,.06088.00078.12173.0024.18177.00239.06968.01119.13295.0152.2002.00562.0849.01041.17139.01921.25307.01124.09369.02566.18258.04007.27149.01281.07927.02483.15855.04082.23382.004.02.0064.044.01124.06406.00557.02563.01759.04565.02322.07048a3.85691,3.85691,0,0,0,.2242.66707c.00322.00641.004.0144.00723.02l.00239.00479a2.99343,2.99343,0,0,0,.34356.56057c.01281.01682.02161.04.03441.05685.01364.01522.02884.028.04165.04325.044.05206.08969.09771.13612.14495s.09208.0945.14174.13693c.04888.04325.10093.08089.153.11853.036.02641.06887.05845.1065.08248.0328.02082.06564.04164.09927.06085l5.6441,3.2801c-.07209-.04245-.13774-.0937-.20582-.14333-.05206-.03844-.10489-.07608-.15377-.11853s-.09448-.08969-.14013-.13615c-.04643-.04724-.0937-.09367-.137-.14572-.02639-.03124-.05044-.06648-.076-.10011a2.97037,2.97037,0,0,1-.34356-.56057l-.00958-.024a4.00141,4.00141,0,0,1-.22425-.66708c-.01041-.04643-.02482-.08969-.0344-.13612-.016-.07449-.02806-.15455-.04087-.23224-.01441-.08969-.02962-.17857-.03924-.27147-.00958-.08328-.01442-.169-.02-.25467-.00723-.12491-.01764-.249-.01764-.38117l-.04722-16.70878a10.86155,10.86155,0,0,1,4.92815-8.53579L466.93559,352.6039a3.48867,3.48867,0,0,1,3.51877-.34355Z" fill="#a4a4a4"/><path d="M505.03119,328.48781c2.72989-1.57678,4.95136-.31067,4.95938,2.82608l.048,16.70956a10.86308,10.86308,0,0,1-4.92809,8.53577l-14.53629,8.39163c-2.72989,1.57678-4.95057.31072-4.95937-2.826l-.048-16.7088a10.86543,10.86543,0,0,1,4.9281-8.53658Z" fill="#c3c3c3"/><path d="M508.54878,328.14371l-5.64414-3.28088a3.4865,3.4865,0,0,0-3.51711.34517l-14.537,8.39163a10.86231,10.86231,0,0,0-4.92741,8.53656l.04644,16.708c.00088.06166.00166.12173.00322.1818.00245.06886.01124.13211.016.19858.00558.08649.01046.173.01838.25627.01124.09289.02571.181.04008.27066.01281.07769.024.15777.04086.233.00479.02082.00636.04323.012.06486.00479.02564.01681.04485.02316.07048a3.85639,3.85639,0,0,0,.22347.66706c.00323.00642.004.01361.00635.01923l.00323.00479a2.93683,2.93683,0,0,0,.34439.56138c.012.01681.02082.03922.03441.05525a.54428.54428,0,0,0,.04086.044c.04321.05206.09042.09851.137.14656.04566.04563.09121.09289.14009.13532.04966.04245.10176.08008.15376.11852.03608.02642.06892.05766.10656.08248.03274.02083.06559.04084.09843.06088h.00079l5.64414,3.28008a2.24615,2.24615,0,0,1-.20587-.14333c-.052-.03764-.10489-.07608-.15377-.11934-.04877-.04164-.09443-.08888-.14008-.13531-.04731-.04727-.09286-.09451-.13695-.145-.02639-.032-.04966-.06728-.07605-.1001a3.00531,3.00531,0,0,1-.34361-.56138c-.00313-.00721-.00557-.01681-.00958-.02483a3.79883,3.79883,0,0,1-.22347-.667c-.01192-.04485-.02473-.0881-.03519-.13534-.016-.07449-.02805-.15455-.04086-.233-.01437-.08888-.02962-.177-.0392-.26985-.00958-.08329-.01359-.169-.01926-.25546-.0088-.12493-.01838-.24905-.01838-.38038l-.04731-16.70959a10.8629,10.8629,0,0,1,4.92741-8.53575l14.53619-8.39163a4.3665,4.3665,0,0,1,2.372-.67431,2.50838,2.50838,0,0,1,1.146.32992v0Z" fill="#a4a4a4"/></g><g clip-path="url(#clip-path-34)"><path d="M440.55331,222.45038l-5.64415-3.28a3.48409,3.48409,0,0,0-3.51711.34434L116.33159,401.41418a10.8608,10.8608,0,0,0-4.92736,8.53577l.04727,16.70319q0,.09247.00239.18258c.0024.06886.01119.13294.0152.2002.00562.08568.01041.17217.02.25387.00958.09448.02483.18255.0392.27224.01286.0785.02483.15856.04086.23386.004.0216.00641.04484.0112.06566.0064.02561.01764.04485.024.07046a3.88365,3.88365,0,0,0,.2242.66947.139.139,0,0,1,.00646.01923l.00317.0032a2.95372,2.95372,0,0,0,.34434.563c.01281.016.02082.03844.03446.05526.01281.016.028.02881.04081.04484.04326.05044.08969.09768.13618.14414.04643.04724.09208.0937.14091.13693.04966.04245.10171.08009.15377.11853.036.02642.06886.05846.1065.08248.03285.02163.06564.04164.09932.06085l5.64405,3.2801a2.42759,2.42759,0,0,1-.20582-.14333c-.05206-.03844-.10411-.07608-.15294-.11853-.04966-.04325-.09609-.08969-.14253-.13693-.04565-.04726-.09213-.09369-.13534-.14494-.02644-.03123-.05044-.06728-.0761-.1001a3.04683,3.04683,0,0,1-.34434-.56138.13773.13773,0,0,0-.0088-.02322,3.98053,3.98053,0,0,1-.225-.66947c-.01119-.04646-.02483-.08888-.03446-.13615-.01681-.07607-.028-.15535-.04081-.23463-.01442-.08889-.02962-.17777-.04-.27066-.00885-.08248-.01364-.17058-.01926-.25626-.008-.12493-.01759-.24986-.01838-.382l-.04726-16.70237a10.86118,10.86118,0,0,1,4.92814-8.535l315.05968-181.9003a4.375,4.375,0,0,1,2.372-.67431A2.50858,2.50858,0,0,1,440.55331,222.45038Z" fill="#4f28c7"/><path d="M437.03571,222.79448c2.72989-1.576,4.95136-.31066,4.96016,2.82686l.04721,16.70316a10.86584,10.86584,0,0,1-4.92731,8.54139L122.05526,432.76543c-2.72994,1.576-4.95136.31071-4.96015-2.83246l-.04727-16.70318a10.86033,10.86033,0,0,1,4.92815-8.535Z" fill="#5e2feb"/><path d="M305.58021,215.21577l-5.64415-3.28a3.4879,3.4879,0,0,0-3.5171.34434L119.97373,314.15037a10.86322,10.86322,0,0,0-4.92814,8.5366l.04726,16.708c0,.06168.00156.12175.00318.18182.00239.06965.01041.1329.0152.2002.00562.08569.01041.17137.01926.25382.00958.0937.02478.18183.04.27152.012.07844.024.15772.04.233.00479.02083.00718.044.012.06486.00557.02483.01681.04409.02322.0697a3.82106,3.82106,0,0,0,.2242.66786l.00562.01921.00322.00484a2.93816,2.93816,0,0,0,.34434.56135c.01281.01682.02083.03925.03363.05523.01359.01682.02884.02884.04164.044.04326.05206.09048.09854.137.14659.0456.04565.09125.09286.14013.13534.04966.04242.10166.08006.15455.11848.036.02644.06887.05767.1065.0825.032.02082.06565.04086.09849.06085l5.6441,3.2801a2.40626,2.40626,0,0,1-.205-.14252c-.05284-.03847-.10489-.07689-.15455-.12014-.04883-.04165-.09448-.08891-.14013-.13534-.04644-.04727-.0937-.09448-.137-.14492-.02639-.03207-.04966-.06731-.07527-.1001a2.97981,2.97981,0,0,1-.34434-.56141c-.00317-.00718-.00562-.01681-.00963-.02478a3.86171,3.86171,0,0,1-.22341-.66708c-.012-.04486-.02562-.08812-.03524-.13534-.016-.07449-.02723-.15376-.04082-.23226-.01442-.08886-.02883-.17777-.03925-.27147-.00879-.08245-.01363-.16813-.0192-.25381-.0088-.12577-.01765-.24908-.01843-.3812l-.04727-16.70961a10.86184,10.86184,0,0,1,4.92815-8.53577L302.06222,215.56016a4.375,4.375,0,0,1,2.372-.67431,2.51806,2.51806,0,0,1,1.146.32992" fill="#4f28c7"/><path d="M302.06262,215.56026c2.72989-1.576,4.95136-.31066,4.96015,2.82686L307.07,235.0959a10.86224,10.86224,0,0,1-4.92731,8.53577L125.6974,345.502c-2.73072,1.576-4.95136.30988-4.96016-2.82686L120.69,325.96639a10.86091,10.86091,0,0,1,4.92814-8.53577Z" fill="#5e2feb"/><path d="M386.2378,332.588a3.48807,3.48807,0,0,0-3.5172.34439L119.3569,484.98588a10.85989,10.85989,0,0,0-4.92736,8.5414l.04726,16.70237c0,.06085.00078.12173.00318.18178.00161.06967.01041.13294.0152.2002.00484.0849.00963.17138.01926.25306.00958.0937.02478.18258.0392.27146.01285.07928.02483.15778.04086.23386.004.02.0064.044.01119.06405.00562.02564.01765.04565.02322.07048a3.85981,3.85981,0,0,0,.22425.66705l.0064.02.00323.00479a2.93057,2.93057,0,0,0,.34434.56058c.012.01762.02082.04.03362.05684.01281.01522.028.028.04165.04326.04325.05205.09047.09848.13612.14575.04643.04724.09208.09367.141.13612.04961.04326.10167.08009.15455.11853.03524.02722.06887.05846.10567.08248.03285.02082.06569.04164.09932.06085l5.6441,3.2801a2.41913,2.41913,0,0,1-.20582-.14335c-.05206-.03842-.10411-.07608-.15377-.11851-.04883-.04245-.09448-.08969-.14013-.13615-.04643-.04723-.0937-.09369-.13695-.14575-.0264-.03121-.05045-.06645-.07528-.1001a2.93082,2.93082,0,0,1-.34434-.56055.23271.23271,0,0,0-.00962-.02483,3.96611,3.96611,0,0,1-.2242-.66627c-.0112-.04643-.02483-.08969-.03446-.13612-.01682-.07529-.028-.15457-.04082-.23224-.01441-.08969-.02962-.17857-.04-.27149-.00884-.08326-.01363-.169-.01925-.25465-.008-.12493-.0176-.24905-.0176-.38117l-.04726-16.70318a10.86458,10.86458,0,0,1,4.92736-8.54139l263.3637-152.05276a3.48633,3.48633,0,0,1,3.5172-.34434Z" fill="#4f28c7"/><path d="M388.36494,336.21238c2.72989-1.57678,4.95136-.31067,4.96016,2.83248l.04721,16.70316a10.85956,10.85956,0,0,1-4.92731,8.535L125.08125,516.33654c-2.73077,1.576-4.95219.31072-4.9602-2.82684l-.04805-16.70237a10.86561,10.86561,0,0,1,4.92814-8.5422Z" fill="#5e2feb"/></g><g clip-path="url(#clip-path-34)"><path d="M530.42906,212.46993l-5.64415-3.28005a3.48452,3.48452,0,0,0-3.51633.34434L338.00772,315.33968a10.86123,10.86123,0,0,0-4.92741,8.5414l.04653,16.70237c.00078.06247.00156.12254.00313.18261.00244.068.01124.13133.01525.19775.00557.08573.01046.173.01926.25548.01036.09448.02483.18261.04.27147.012.0785.02405.15777.04086.233.004.02082.00557.044.01046.06486.00635.02561.01759.04487.02395.07048a3.88705,3.88705,0,0,0,.22425.66786l.00645.0192.00313.004a3.018,3.018,0,0,0,.34282.56136c.01359.01681.02239.03925.03519.05606s.02806.02884.04165.04487c.0432.05044.08964.0977.13617.14414a1.87445,1.87445,0,0,0,.14086.13612c.04888.04326.10177.08089.15377.12014.03607.02561.06892.05684.10655.08089.032.02161.06481.04165.09766.06l.00166.00083,5.644,3.28011a2.15205,2.15205,0,0,1-.20587-.14336,1.821,1.821,0,0,1-.15367-.11853c-.04966-.04242-.09531-.08891-.14018-.13534-.04722-.04805-.09365-.09448-.137-.14653-.0264-.03124-.05123-.06648-.07606-.09932a3.00947,3.00947,0,0,1-.34439-.56136.184.184,0,0,0-.00879-.02321,3.83933,3.83933,0,0,1-.22425-.66869c-.01115-.04565-.02473-.0873-.03519-.13451-.016-.07527-.02806-.15538-.04008-.23383-.01516-.08891-.02962-.17782-.04-.2699-.0088-.08246-.01359-.16975-.01926-.25543-.008-.12576-.0176-.24908-.01838-.3812l-.04731-16.70237a10.86438,10.86438,0,0,1,4.92819-8.5414L526.91185,212.81432a3.732,3.732,0,0,1,3.164-.51174,2.34958,2.34958,0,0,1,.35319.16735h0" fill="url(#New_Gradient_Swatch_2)"/><path d="M526.91224,212.814c2.72989-1.576,4.95136-.31067,4.96016,2.83248l.04722,16.70316a10.86227,10.86227,0,0,1-4.92732,8.53577L343.73134,346.691c-2.72989,1.576-4.95136.30989-4.96016-2.82764l-.04721-16.70238a10.86112,10.86112,0,0,1,4.92731-8.54139Z" fill="url(#linear-gradient-6)"/><path d="M528.32382,45.93867a3.48762,3.48762,0,0,0-3.518.34439L405.73738,115.02731a10.85972,10.85972,0,0,0-4.92731,8.53578l.04643,16.70877c0,.06086.00167.12171.00323.181.00235.06965.01124.13289.016.2002.00479.08568.00958.17136.01838.25382.01046.0937.02483.1826.04008.27151.012.07845.02405.15773.04086.233.004.02165.00557.044.01114.06486.00567.02566.0176.04487.024.07048a3.81184,3.81184,0,0,0,.22347.66708l.00635.02.00323.00479a2.9687,2.9687,0,0,0,.34351.56057c.0128.01681.0216.03925.0345.05606.01281.016.028.02879.04155.044.04331.052.08974.09849.137.14575.04566.04643.09052.09287.14018.13612.04888.04243.10167.08006.15377.11853.036.02639.06882.05763.10646.08246.03284.02082.06569.04086.09931.06007l5.644,3.28088c-.072-.04242-.13851-.09448-.20577-.14331-.052-.03846-.10489-.0761-.15377-.11936-.04887-.04164-.09531-.08885-.141-.13612-.04643-.04643-.09287-.0937-.13607-.14492-.02649-.03206-.05044-.0673-.07615-.1001a3.01708,3.01708,0,0,1-.34429-.56057.15721.15721,0,0,0-.0088-.02483,3.83724,3.83724,0,0,1-.22425-.66708c-.01124-.04565-.02483-.08891-.03519-.13612-.01525-.07449-.02806-.15377-.04008-.23144-.01437-.08969-.02962-.17859-.04008-.27229-.0088-.08246-.01359-.16814-.01916-.25382-.008-.12576-.0176-.24908-.0176-.38119l-.04809-16.70878a10.86449,10.86449,0,0,1,4.92819-8.53577L530.44988,49.56311a3.486,3.486,0,0,1,3.518-.34434Z" fill="url(#New_Gradient_Swatch_2-2)"/><path d="M530.45017,49.56292c2.72989-1.57595,4.95136-.31067,4.96016,2.82686l.04722,16.70878a10.86437,10.86437,0,0,1-4.92732,8.53577L411.461,146.3778c-2.73,1.57678-4.95136.31072-4.96015-2.826l-.04732-16.70878a10.86293,10.86293,0,0,1,4.92741-8.53577Z" fill="url(#New_Gradient_Swatch_1)"/><path d="M528.45442,123.39343a3.48778,3.48778,0,0,0-3.518.34439L277.479,266.60694a10.8654,10.8654,0,0,0-4.92814,8.53655l.04726,16.70238c.00083.06168.00162.12253.00323.1826.00239.06887.01119.13295.0152.2002.00562.08568.01041.17215.01921.25465.01041.0937.02483.18178.04.27147.01285.07849.02483.15855.04008.23383.00479.02165.00718.04486.012.06569.00562.02561.01765.04482.02322.07048a3.85044,3.85044,0,0,0,.22586.67025.103.103,0,0,1,.00479.01843l.00323.004a2.98447,2.98447,0,0,0,.34434.56213c.01358.01682.02082.03925.03441.05528s.02805.02884.04164.04482c.04326.05128.08969.09771.13612.145.04565.04644.09214.0937.141.13613.04966.04242.10089.08006.15377.11852.036.02645.06965.05846.10729.08246.03206.02082.06569.04164.09849.0609l5.64483,3.2801a2.16168,2.16168,0,0,1-.20656-.14335c-.05288-.03847-.10411-.07611-.15377-.11853-.04887-.04243-.09531-.08969-.141-.137-.04643-.04721-.09365-.09369-.13607-.14492-.02728-.03123-.05054-.06647-.07615-.1001a2.97731,2.97731,0,0,1-.34429-.56135l-.0088-.02327a3.83135,3.83135,0,0,1-.225-.66947c-.01046-.0456-.02483-.08886-.03529-.13612-.01515-.07527-.028-.15533-.04-.23461-.01447-.08891-.02962-.17782-.0393-.27069-.00958-.08328-.01437-.1698-.02-.25626-.00792-.12571-.0176-.249-.0176-.38119l-.048-16.70316a10.86047,10.86047,0,0,1,4.92809-8.535L530.58048,127.01788a3.48593,3.48593,0,0,1,3.518-.34434Z" fill="url(#New_Gradient_Swatch_2-3)"/><path d="M530.58077,127.01768c2.72989-1.57595,4.95136-.31066,4.95938,2.82686l.048,16.70238a10.86608,10.86608,0,0,1-4.92732,8.54217L283.20266,297.95821c-2.73,1.57678-4.95146.31071-4.96025-2.83244l-.04722-16.70315a10.86174,10.86174,0,0,1,4.92731-8.535Z" fill="url(#New_Gradient_Swatch_1-2)"/></g></g></g><path d="M666.19679,524.53168l70.096-40.47a26.26386,26.26386,0,0,0,13.13191-22.74516V62.83129a26.26387,26.26387,0,0,0-39.39583-22.74516L535.57167,140.81322" fill="none" stroke="#fff" stroke-miterlimit="10"/><path d="M535.43684,61.77237l72.3934-42.08107a26.26387,26.26387,0,0,1,39.39584,22.74516V75.07658" fill="none" stroke="#fff" stroke-miterlimit="10"/><path d="M531.89757,224.5495l59.8046-34.39438A25.42318,25.42318,0,0,0,604.41379,168.138V101.06315" fill="none" stroke="#fff" stroke-miterlimit="10"/></g><g id="arrows"><polyline points="669.265 534.42 662.596 527.196 662.596 527.196 653.328 524.532" fill="none" stroke="#fff" stroke-linecap="round" stroke-linejoin="round" stroke-opacity="0.6"/><polyline points="663.731 537.612 657.062 530.388 657.062 530.388 647.795 527.724" fill="none" stroke="#fff" stroke-linecap="round" stroke-linejoin="round" stroke-opacity="0.6"/></g></svg>